<?xml version="1.0" encoding="utf-8" standalone="no"?>
<!DOCTYPE svg PUBLIC "-//W3C//DTD SVG 1.1//EN"
  "http://www.w3.org/Graphics/SVG/1.1/DTD/svg11.dtd">
<svg xmlns:xlink="http://www.w3.org/1999/xlink" width="460.8pt" height="345.6pt" viewBox="0 0 460.8 345.6" xmlns="http://www.w3.org/2000/svg" version="1.1">
 <metadata>
  <rdf:RDF xmlns:dc="http://purl.org/dc/elements/1.1/" xmlns:cc="http://creativecommons.org/ns#" xmlns:rdf="http://www.w3.org/1999/02/22-rdf-syntax-ns#">
   <cc:Work>
    <dc:type rdf:resource="http://purl.org/dc/dcmitype/StillImage"/>
    <dc:date>2022-09-21T17:49:29.509626</dc:date>
    <dc:format>image/svg+xml</dc:format>
    <dc:creator>
     <cc:Agent>
      <dc:title>Matplotlib v3.5.1, https://matplotlib.org/</dc:title>
     </cc:Agent>
    </dc:creator>
   </cc:Work>
  </rdf:RDF>
 </metadata>
 <defs>
  <style type="text/css">*{stroke-linejoin: round; stroke-linecap: butt}</style>
 </defs>
 <g id="figure_1">
  <g id="patch_1">
   <path d="M 0 345.6 
L 460.8 345.6 
L 460.8 0 
L 0 0 
z
" style="fill: #ffffff"/>
  </g>
  <g id="axes_1">
   <g id="patch_2">
    <path d="M 57.6 307.584 
L 414.72 307.584 
L 414.72 41.472 
L 57.6 41.472 
z
" style="fill: #ffffff"/>
   </g>
   <g id="PolyCollection_1">
    <path d="M 90.107103 295.488 
L 80.208669 295.488 
L 80.093318 293.044364 
L 79.985537 290.600727 
L 79.884941 288.157091 
L 79.791007 285.713455 
L 79.703094 283.269818 
L 79.62045 280.826182 
L 79.542237 278.382545 
L 79.467543 275.938909 
L 79.395403 273.495273 
L 79.32482 271.051636 
L 79.254778 268.608 
L 79.184257 266.164364 
L 79.112256 263.720727 
L 79.037795 261.277091 
L 78.959936 258.833455 
L 78.877786 256.389818 
L 78.790511 253.946182 
L 78.697338 251.502545 
L 78.597566 249.058909 
L 78.490572 246.615273 
L 78.375817 244.171636 
L 78.252851 241.728 
L 78.121328 239.284364 
L 77.981006 236.840727 
L 77.831766 234.397091 
L 77.673614 231.953455 
L 77.5067 229.509818 
L 77.331322 227.066182 
L 77.147943 224.622545 
L 76.957195 222.178909 
L 76.759891 219.735273 
L 76.557024 217.291636 
L 76.349771 214.848 
L 76.139489 212.404364 
L 75.927705 209.960727 
L 75.7161 207.517091 
L 75.506494 205.073455 
L 75.300816 202.629818 
L 75.101074 200.186182 
L 74.909323 197.742545 
L 74.727621 195.298909 
L 74.55799 192.855273 
L 74.402372 190.411636 
L 74.262586 187.968 
L 74.140285 185.524364 
L 74.036915 183.080727 
L 73.953684 180.637091 
L 73.89153 178.193455 
L 73.851098 175.749818 
L 73.832727 173.306182 
L 73.836442 170.862545 
L 73.861955 168.418909 
L 73.908675 165.975273 
L 73.97573 163.531636 
L 74.061986 161.088 
L 74.166084 158.644364 
L 74.286472 156.200727 
L 74.421451 153.757091 
L 74.569211 151.313455 
L 74.72788 148.869818 
L 74.895562 146.426182 
L 75.070381 143.982545 
L 75.250513 141.538909 
L 75.434224 139.095273 
L 75.619889 136.651636 
L 75.806024 134.208 
L 75.99129 131.764364 
L 76.174514 129.320727 
L 76.354682 126.877091 
L 76.53095 124.433455 
L 76.70263 121.989818 
L 76.869187 119.546182 
L 77.03023 117.102545 
L 77.185495 114.658909 
L 77.334839 112.215273 
L 77.478222 109.771636 
L 77.6157 107.328 
L 77.747414 104.884364 
L 77.873581 102.440727 
L 77.994489 99.997091 
L 78.110487 97.553455 
L 78.221989 95.109818 
L 78.329462 92.666182 
L 78.433434 90.222545 
L 78.534481 87.778909 
L 78.633234 85.335273 
L 78.730366 82.891636 
L 78.826594 80.448 
L 78.922669 78.004364 
L 79.019364 75.560727 
L 79.117468 73.117091 
L 79.217768 70.673455 
L 79.321037 68.229818 
L 79.428018 65.786182 
L 79.539401 63.342545 
L 79.655814 60.898909 
L 79.777799 58.455273 
L 79.9058 56.011636 
L 80.040146 53.568 
L 90.275626 53.568 
L 90.275626 53.568 
L 90.409972 56.011636 
L 90.537973 58.455273 
L 90.659958 60.898909 
L 90.776371 63.342545 
L 90.887754 65.786182 
L 90.994734 68.229818 
L 91.098004 70.673455 
L 91.198304 73.117091 
L 91.296408 75.560727 
L 91.393103 78.004364 
L 91.489177 80.448 
L 91.585406 82.891636 
L 91.682538 85.335273 
L 91.78129 87.778909 
L 91.882338 90.222545 
L 91.986309 92.666182 
L 92.093783 95.109818 
L 92.205284 97.553455 
L 92.321283 99.997091 
L 92.44219 102.440727 
L 92.568358 104.884364 
L 92.700072 107.328 
L 92.83755 109.771636 
L 92.980933 112.215273 
L 93.130276 114.658909 
L 93.285542 117.102545 
L 93.446584 119.546182 
L 93.613142 121.989818 
L 93.784822 124.433455 
L 93.96109 126.877091 
L 94.141258 129.320727 
L 94.324481 131.764364 
L 94.509748 134.208 
L 94.695882 136.651636 
L 94.881548 139.095273 
L 95.065258 141.538909 
L 95.245391 143.982545 
L 95.42021 146.426182 
L 95.587892 148.869818 
L 95.746561 151.313455 
L 95.894321 153.757091 
L 96.029299 156.200727 
L 96.149688 158.644364 
L 96.253785 161.088 
L 96.340042 163.531636 
L 96.407096 165.975273 
L 96.453817 168.418909 
L 96.47933 170.862545 
L 96.483044 173.306182 
L 96.464673 175.749818 
L 96.424242 178.193455 
L 96.362087 180.637091 
L 96.278857 183.080727 
L 96.175487 185.524364 
L 96.053185 187.968 
L 95.913399 190.411636 
L 95.757782 192.855273 
L 95.588151 195.298909 
L 95.406449 197.742545 
L 95.214698 200.186182 
L 95.014956 202.629818 
L 94.809278 205.073455 
L 94.599672 207.517091 
L 94.388067 209.960727 
L 94.176282 212.404364 
L 93.966 214.848 
L 93.758748 217.291636 
L 93.555881 219.735273 
L 93.358577 222.178909 
L 93.167829 224.622545 
L 92.98445 227.066182 
L 92.809072 229.509818 
L 92.642157 231.953455 
L 92.484006 234.397091 
L 92.334765 236.840727 
L 92.194444 239.284364 
L 92.06292 241.728 
L 91.939955 244.171636 
L 91.825199 246.615273 
L 91.718206 249.058909 
L 91.618434 251.502545 
L 91.525261 253.946182 
L 91.437985 256.389818 
L 91.355836 258.833455 
L 91.277977 261.277091 
L 91.203516 263.720727 
L 91.131514 266.164364 
L 91.060994 268.608 
L 90.990951 271.051636 
L 90.920368 273.495273 
L 90.848229 275.938909 
L 90.773535 278.382545 
L 90.695321 280.826182 
L 90.612678 283.269818 
L 90.524764 285.713455 
L 90.430831 288.157091 
L 90.330234 290.600727 
L 90.222453 293.044364 
L 90.107103 295.488 
z
" clip-path="url(#p6dbf814326)" style="fill: #1f77b4; fill-opacity: 0.3"/>
   </g>
   <g id="PolyCollection_2">
    <path d="M 170.00999 295.488 
L 151.307895 295.488 
L 151.08475 293.044364 
L 150.876093 290.600727 
L 150.681972 288.157091 
L 150.502304 285.713455 
L 150.336898 283.269818 
L 150.185471 280.826182 
L 150.047683 278.382545 
L 149.923151 275.938909 
L 149.811479 273.495273 
L 149.712277 271.051636 
L 149.625179 268.608 
L 149.549859 266.164364 
L 149.486042 263.720727 
L 149.433509 261.277091 
L 149.392097 258.833455 
L 149.361704 256.389818 
L 149.342272 253.946182 
L 149.333784 251.502545 
L 149.33625 249.058909 
L 149.349686 246.615273 
L 149.374103 244.171636 
L 149.409488 241.728 
L 149.455788 239.284364 
L 149.512893 236.840727 
L 149.580623 234.397091 
L 149.658722 231.953455 
L 149.746847 229.509818 
L 149.844567 227.066182 
L 149.951362 224.622545 
L 150.066629 222.178909 
L 150.189689 219.735273 
L 150.319801 217.291636 
L 150.456169 214.848 
L 150.597961 212.404364 
L 150.744325 209.960727 
L 150.894407 207.517091 
L 151.047361 205.073455 
L 151.202372 202.629818 
L 151.358662 200.186182 
L 151.515509 197.742545 
L 151.672246 195.298909 
L 151.828277 192.855273 
L 151.983073 190.411636 
L 152.136178 187.968 
L 152.287204 185.524364 
L 152.435828 183.080727 
L 152.581788 180.637091 
L 152.724876 178.193455 
L 152.86493 175.749818 
L 153.001828 173.306182 
L 153.135479 170.862545 
L 153.265819 168.418909 
L 153.392801 165.975273 
L 153.516394 163.531636 
L 153.636581 161.088 
L 153.75335 158.644364 
L 153.866702 156.200727 
L 153.976644 153.757091 
L 154.083192 151.313455 
L 154.186374 148.869818 
L 154.286232 146.426182 
L 154.38282 143.982545 
L 154.476212 141.538909 
L 154.566495 139.095273 
L 154.653778 136.651636 
L 154.738186 134.208 
L 154.819861 131.764364 
L 154.898962 129.320727 
L 154.97566 126.877091 
L 155.050138 124.433455 
L 155.122584 121.989818 
L 155.193194 119.546182 
L 155.262163 117.102545 
L 155.329686 114.658909 
L 155.395956 112.215273 
L 155.461161 109.771636 
L 155.525483 107.328 
L 155.589102 104.884364 
L 155.652193 102.440727 
L 155.71493 99.997091 
L 155.777488 97.553455 
L 155.840046 95.109818 
L 155.902788 92.666182 
L 155.965909 90.222545 
L 156.029616 87.778909 
L 156.094129 85.335273 
L 156.159681 82.891636 
L 156.226522 80.448 
L 156.294912 78.004364 
L 156.365124 75.560727 
L 156.437433 73.117091 
L 156.512119 70.673455 
L 156.589455 68.229818 
L 156.669699 65.786182 
L 156.753091 63.342545 
L 156.839842 60.898909 
L 156.930126 58.455273 
L 157.02407 56.011636 
L 157.121753 53.568 
L 164.196133 53.568 
L 164.196133 53.568 
L 164.293816 56.011636 
L 164.38776 58.455273 
L 164.478044 60.898909 
L 164.564795 63.342545 
L 164.648187 65.786182 
L 164.728431 68.229818 
L 164.805766 70.673455 
L 164.880453 73.117091 
L 164.952762 75.560727 
L 165.022974 78.004364 
L 165.091364 80.448 
L 165.158205 82.891636 
L 165.223757 85.335273 
L 165.28827 87.778909 
L 165.351977 90.222545 
L 165.415098 92.666182 
L 165.47784 95.109818 
L 165.540398 97.553455 
L 165.602955 99.997091 
L 165.665692 102.440727 
L 165.728784 104.884364 
L 165.792402 107.328 
L 165.856725 109.771636 
L 165.921929 112.215273 
L 165.9882 114.658909 
L 166.055723 117.102545 
L 166.124692 119.546182 
L 166.195302 121.989818 
L 166.267748 124.433455 
L 166.342226 126.877091 
L 166.418924 129.320727 
L 166.498025 131.764364 
L 166.5797 134.208 
L 166.664108 136.651636 
L 166.751391 139.095273 
L 166.841674 141.538909 
L 166.935065 143.982545 
L 167.031654 146.426182 
L 167.131512 148.869818 
L 167.234694 151.313455 
L 167.341242 153.757091 
L 167.451184 156.200727 
L 167.564535 158.644364 
L 167.681305 161.088 
L 167.801492 163.531636 
L 167.925085 165.975273 
L 168.052067 168.418909 
L 168.182406 170.862545 
L 168.316058 173.306182 
L 168.452956 175.749818 
L 168.59301 178.193455 
L 168.736098 180.637091 
L 168.882058 183.080727 
L 169.030682 185.524364 
L 169.181708 187.968 
L 169.334813 190.411636 
L 169.489609 192.855273 
L 169.64564 195.298909 
L 169.802377 197.742545 
L 169.959223 200.186182 
L 170.115514 202.629818 
L 170.270525 205.073455 
L 170.423479 207.517091 
L 170.573561 209.960727 
L 170.719925 212.404364 
L 170.861717 214.848 
L 170.998085 217.291636 
L 171.128196 219.735273 
L 171.251257 222.178909 
L 171.366524 224.622545 
L 171.473319 227.066182 
L 171.571038 229.509818 
L 171.659163 231.953455 
L 171.737263 234.397091 
L 171.804993 236.840727 
L 171.862097 239.284364 
L 171.908397 241.728 
L 171.943783 244.171636 
L 171.9682 246.615273 
L 171.981636 249.058909 
L 171.984101 251.502545 
L 171.975614 253.946182 
L 171.956182 256.389818 
L 171.925789 258.833455 
L 171.884377 261.277091 
L 171.831843 263.720727 
L 171.768026 266.164364 
L 171.692707 268.608 
L 171.605609 271.051636 
L 171.506407 273.495273 
L 171.394735 275.938909 
L 171.270203 278.382545 
L 171.132414 280.826182 
L 170.980988 283.269818 
L 170.815581 285.713455 
L 170.635914 288.157091 
L 170.441793 290.600727 
L 170.233135 293.044364 
L 170.00999 295.488 
z
" clip-path="url(#p6dbf814326)" style="fill: #1f77b4; fill-opacity: 0.3"/>
   </g>
   <g id="PolyCollection_3">
    <path d="M 244.778714 295.488 
L 227.541286 295.488 
L 227.341531 293.044364 
L 227.152903 290.600727 
L 226.975445 288.157091 
L 226.809085 285.713455 
L 226.653649 283.269818 
L 226.508865 280.826182 
L 226.374381 278.382545 
L 226.249775 275.938909 
L 226.134565 273.495273 
L 226.028227 271.051636 
L 225.930206 268.608 
L 225.839925 266.164364 
L 225.756801 263.720727 
L 225.680253 261.277091 
L 225.60971 258.833455 
L 225.544622 256.389818 
L 225.484462 253.946182 
L 225.428736 251.502545 
L 225.376985 249.058909 
L 225.328786 246.615273 
L 225.283759 244.171636 
L 225.241565 241.728 
L 225.201906 239.284364 
L 225.164529 236.840727 
L 225.129224 234.397091 
L 225.095826 231.953455 
L 225.064209 229.509818 
L 225.034295 227.066182 
L 225.006047 224.622545 
L 224.979471 222.178909 
L 224.954614 219.735273 
L 224.931565 217.291636 
L 224.910454 214.848 
L 224.891446 212.404364 
L 224.874744 209.960727 
L 224.860582 207.517091 
L 224.849219 205.073455 
L 224.84094 202.629818 
L 224.836045 200.186182 
L 224.834841 197.742545 
L 224.837641 195.298909 
L 224.844749 192.855273 
L 224.856453 190.411636 
L 224.87302 187.968 
L 224.894682 185.524364 
L 224.921633 183.080727 
L 224.954016 180.637091 
L 224.991921 178.193455 
L 225.035377 175.749818 
L 225.084346 173.306182 
L 225.138727 170.862545 
L 225.198347 168.418909 
L 225.262966 165.975273 
L 225.332279 163.531636 
L 225.40592 161.088 
L 225.483467 158.644364 
L 225.564448 156.200727 
L 225.648351 153.757091 
L 225.734634 151.313455 
L 225.822729 148.869818 
L 225.912059 146.426182 
L 226.002046 143.982545 
L 226.092118 141.538909 
L 226.181725 139.095273 
L 226.270341 136.651636 
L 226.357481 134.208 
L 226.442702 131.764364 
L 226.525615 129.320727 
L 226.60589 126.877091 
L 226.683258 124.433455 
L 226.757522 121.989818 
L 226.828553 119.546182 
L 226.896301 117.102545 
L 226.960788 114.658909 
L 227.022117 112.215273 
L 227.080466 109.771636 
L 227.136093 107.328 
L 227.189329 104.884364 
L 227.240581 102.440727 
L 227.290328 99.997091 
L 227.339113 97.553455 
L 227.387544 95.109818 
L 227.436286 92.666182 
L 227.486053 90.222545 
L 227.537602 87.778909 
L 227.591722 85.335273 
L 227.649227 82.891636 
L 227.710942 80.448 
L 227.777691 78.004364 
L 227.850288 75.560727 
L 227.929519 73.117091 
L 228.01613 70.673455 
L 228.110812 68.229818 
L 228.214191 65.786182 
L 228.326811 63.342545 
L 228.44912 60.898909 
L 228.581467 58.455273 
L 228.724081 56.011636 
L 228.877074 53.568 
L 243.442926 53.568 
L 243.442926 53.568 
L 243.595919 56.011636 
L 243.738533 58.455273 
L 243.87088 60.898909 
L 243.993189 63.342545 
L 244.105809 65.786182 
L 244.209188 68.229818 
L 244.30387 70.673455 
L 244.390481 73.117091 
L 244.469712 75.560727 
L 244.542309 78.004364 
L 244.609058 80.448 
L 244.670773 82.891636 
L 244.728278 85.335273 
L 244.782398 87.778909 
L 244.833947 90.222545 
L 244.883714 92.666182 
L 244.932456 95.109818 
L 244.980887 97.553455 
L 245.029672 99.997091 
L 245.079419 102.440727 
L 245.130671 104.884364 
L 245.183907 107.328 
L 245.239534 109.771636 
L 245.297883 112.215273 
L 245.359212 114.658909 
L 245.423699 117.102545 
L 245.491447 119.546182 
L 245.562478 121.989818 
L 245.636742 124.433455 
L 245.71411 126.877091 
L 245.794385 129.320727 
L 245.877298 131.764364 
L 245.962519 134.208 
L 246.049659 136.651636 
L 246.138275 139.095273 
L 246.227882 141.538909 
L 246.317954 143.982545 
L 246.407941 146.426182 
L 246.497271 148.869818 
L 246.585366 151.313455 
L 246.671649 153.757091 
L 246.755552 156.200727 
L 246.836533 158.644364 
L 246.91408 161.088 
L 246.987721 163.531636 
L 247.057034 165.975273 
L 247.121653 168.418909 
L 247.181273 170.862545 
L 247.235654 173.306182 
L 247.284623 175.749818 
L 247.328079 178.193455 
L 247.365984 180.637091 
L 247.398367 183.080727 
L 247.425318 185.524364 
L 247.44698 187.968 
L 247.463547 190.411636 
L 247.475251 192.855273 
L 247.482359 195.298909 
L 247.485159 197.742545 
L 247.483955 200.186182 
L 247.47906 202.629818 
L 247.470781 205.073455 
L 247.459418 207.517091 
L 247.445256 209.960727 
L 247.428554 212.404364 
L 247.409546 214.848 
L 247.388435 217.291636 
L 247.365386 219.735273 
L 247.340529 222.178909 
L 247.313953 224.622545 
L 247.285705 227.066182 
L 247.255791 229.509818 
L 247.224174 231.953455 
L 247.190776 234.397091 
L 247.155471 236.840727 
L 247.118094 239.284364 
L 247.078435 241.728 
L 247.036241 244.171636 
L 246.991214 246.615273 
L 246.943015 249.058909 
L 246.891264 251.502545 
L 246.835538 253.946182 
L 246.775378 256.389818 
L 246.71029 258.833455 
L 246.639747 261.277091 
L 246.563199 263.720727 
L 246.480075 266.164364 
L 246.389794 268.608 
L 246.291773 271.051636 
L 246.185435 273.495273 
L 246.070225 275.938909 
L 245.945619 278.382545 
L 245.811135 280.826182 
L 245.666351 283.269818 
L 245.510915 285.713455 
L 245.344555 288.157091 
L 245.167097 290.600727 
L 244.978469 293.044364 
L 244.778714 295.488 
z
" clip-path="url(#p6dbf814326)" style="fill: #1f77b4; fill-opacity: 0.3"/>
   </g>
   <g id="PolyCollection_4">
    <path d="M 317.866559 295.488 
L 305.455555 295.488 
L 305.270743 293.044364 
L 305.094378 290.600727 
L 304.923827 288.157091 
L 304.756132 285.713455 
L 304.588166 283.269818 
L 304.416817 280.826182 
L 304.239174 278.382545 
L 304.052709 275.938909 
L 303.855453 273.495273 
L 303.646141 271.051636 
L 303.424332 268.608 
L 303.190472 266.164364 
L 302.945931 263.720727 
L 302.692966 261.277091 
L 302.434647 258.833455 
L 302.174728 256.389818 
L 301.917476 253.946182 
L 301.667458 251.502545 
L 301.429316 249.058909 
L 301.207518 246.615273 
L 301.006119 244.171636 
L 300.82854 241.728 
L 300.67737 239.284364 
L 300.554218 236.840727 
L 300.459615 234.397091 
L 300.392977 231.953455 
L 300.35263 229.509818 
L 300.335899 227.066182 
L 300.339252 224.622545 
L 300.358509 222.178909 
L 300.389069 219.735273 
L 300.426187 217.291636 
L 300.465248 214.848 
L 300.50204 212.404364 
L 300.533012 209.960727 
L 300.555486 207.517091 
L 300.567832 205.073455 
L 300.569577 202.629818 
L 300.561451 200.186182 
L 300.545365 197.742545 
L 300.524326 195.298909 
L 300.50228 192.855273 
L 300.483915 190.411636 
L 300.474417 187.968 
L 300.479191 185.524364 
L 300.503587 183.080727 
L 300.552614 180.637091 
L 300.630682 178.193455 
L 300.741377 175.749818 
L 300.887274 173.306182 
L 301.069814 170.862545 
L 301.289232 168.418909 
L 301.544552 165.975273 
L 301.833636 163.531636 
L 302.153291 161.088 
L 302.499426 158.644364 
L 302.867242 156.200727 
L 303.251444 153.757091 
L 303.646476 151.313455 
L 304.046745 148.869818 
L 304.446841 146.426182 
L 304.841731 143.982545 
L 305.226921 141.538909 
L 305.598588 139.095273 
L 305.95366 136.651636 
L 306.289861 134.208 
L 306.605716 131.764364 
L 306.90051 129.320727 
L 307.174225 126.877091 
L 307.427446 124.433455 
L 307.661243 121.989818 
L 307.877056 119.546182 
L 308.076565 117.102545 
L 308.26157 114.658909 
L 308.433881 112.215273 
L 308.595221 109.771636 
L 308.747155 107.328 
L 308.891028 104.884364 
L 309.027941 102.440727 
L 309.158729 99.997091 
L 309.283976 97.553455 
L 309.404032 95.109818 
L 309.519053 92.666182 
L 309.629045 90.222545 
L 309.733908 87.778909 
L 309.833492 85.335273 
L 309.92764 82.891636 
L 310.016231 80.448 
L 310.099213 78.004364 
L 310.176629 75.560727 
L 310.248627 73.117091 
L 310.315471 70.673455 
L 310.37753 68.229818 
L 310.435264 65.786182 
L 310.489212 63.342545 
L 310.539959 60.898909 
L 310.588113 58.455273 
L 310.634278 56.011636 
L 310.679024 53.568 
L 312.64309 53.568 
L 312.64309 53.568 
L 312.687836 56.011636 
L 312.734001 58.455273 
L 312.782155 60.898909 
L 312.832902 63.342545 
L 312.88685 65.786182 
L 312.944585 68.229818 
L 313.006643 70.673455 
L 313.073487 73.117091 
L 313.145486 75.560727 
L 313.222901 78.004364 
L 313.305883 80.448 
L 313.394474 82.891636 
L 313.488622 85.335273 
L 313.588206 87.778909 
L 313.693069 90.222545 
L 313.803061 92.666182 
L 313.918082 95.109818 
L 314.038139 97.553455 
L 314.163385 99.997091 
L 314.294173 102.440727 
L 314.431086 104.884364 
L 314.57496 107.328 
L 314.726893 109.771636 
L 314.888234 112.215273 
L 315.060544 114.658909 
L 315.245549 117.102545 
L 315.445058 119.546182 
L 315.660871 121.989818 
L 315.894668 124.433455 
L 316.147889 126.877091 
L 316.421604 129.320727 
L 316.716398 131.764364 
L 317.032253 134.208 
L 317.368454 136.651636 
L 317.723526 139.095273 
L 318.095193 141.538909 
L 318.480383 143.982545 
L 318.875273 146.426182 
L 319.275369 148.869818 
L 319.675638 151.313455 
L 320.07067 153.757091 
L 320.454872 156.200727 
L 320.822688 158.644364 
L 321.168823 161.088 
L 321.488479 163.531636 
L 321.777562 165.975273 
L 322.032882 168.418909 
L 322.252301 170.862545 
L 322.434841 173.306182 
L 322.580738 175.749818 
L 322.691432 178.193455 
L 322.7695 180.637091 
L 322.818527 183.080727 
L 322.842923 185.524364 
L 322.847697 187.968 
L 322.838199 190.411636 
L 322.819835 192.855273 
L 322.797789 195.298909 
L 322.776749 197.742545 
L 322.760663 200.186182 
L 322.752537 202.629818 
L 322.754282 205.073455 
L 322.766628 207.517091 
L 322.789102 209.960727 
L 322.820074 212.404364 
L 322.856867 214.848 
L 322.895927 217.291636 
L 322.933045 219.735273 
L 322.963606 222.178909 
L 322.982862 224.622545 
L 322.986216 227.066182 
L 322.969484 229.509818 
L 322.929137 231.953455 
L 322.862499 234.397091 
L 322.767896 236.840727 
L 322.644744 239.284364 
L 322.493574 241.728 
L 322.315995 244.171636 
L 322.114597 246.615273 
L 321.892798 249.058909 
L 321.654656 251.502545 
L 321.404638 253.946182 
L 321.147386 256.389818 
L 320.887467 258.833455 
L 320.629148 261.277091 
L 320.376183 263.720727 
L 320.131642 266.164364 
L 319.897783 268.608 
L 319.675973 271.051636 
L 319.466662 273.495273 
L 319.269405 275.938909 
L 319.08294 278.382545 
L 318.905297 280.826182 
L 318.733948 283.269818 
L 318.565982 285.713455 
L 318.398287 288.157091 
L 318.227736 290.600727 
L 318.051371 293.044364 
L 317.866559 295.488 
z
" clip-path="url(#p6dbf814326)" style="fill: #1f77b4; fill-opacity: 0.3"/>
   </g>
   <g id="PolyCollection_5">
    <path d="M 397.661063 295.488 
L 376.663165 295.488 
L 376.48071 293.044364 
L 376.322668 290.600727 
L 376.18866 288.157091 
L 376.078021 285.713455 
L 375.98984 283.269818 
L 375.922992 280.826182 
L 375.876185 278.382545 
L 375.848004 275.938909 
L 375.836956 273.495273 
L 375.841512 271.051636 
L 375.860152 268.608 
L 375.891397 266.164364 
L 375.933845 263.720727 
L 375.98619 261.277091 
L 376.047247 258.833455 
L 376.115955 256.389818 
L 376.191389 253.946182 
L 376.272751 251.502545 
L 376.359364 249.058909 
L 376.450661 246.615273 
L 376.546165 244.171636 
L 376.645471 241.728 
L 376.748228 239.284364 
L 376.854115 236.840727 
L 376.962826 234.397091 
L 377.07405 231.953455 
L 377.187461 229.509818 
L 377.302707 227.066182 
L 377.419403 224.622545 
L 377.537132 222.178909 
L 377.655445 219.735273 
L 377.773868 217.291636 
L 377.891909 214.848 
L 378.009069 212.404364 
L 378.124857 209.960727 
L 378.238794 207.517091 
L 378.350435 205.073455 
L 378.459371 202.629818 
L 378.565242 200.186182 
L 378.667745 197.742545 
L 378.766632 195.298909 
L 378.861721 192.855273 
L 378.952886 190.411636 
L 379.04006 187.968 
L 379.123229 185.524364 
L 379.202424 183.080727 
L 379.277718 180.637091 
L 379.349216 178.193455 
L 379.417051 175.749818 
L 379.48138 173.306182 
L 379.542376 170.862545 
L 379.600233 168.418909 
L 379.655158 165.975273 
L 379.707379 163.531636 
L 379.757147 161.088 
L 379.804739 158.644364 
L 379.850464 156.200727 
L 379.894669 153.757091 
L 379.937744 151.313455 
L 379.980126 148.869818 
L 380.022303 146.426182 
L 380.064811 143.982545 
L 380.108236 141.538909 
L 380.153206 139.095273 
L 380.200386 136.651636 
L 380.250464 134.208 
L 380.304141 131.764364 
L 380.362113 129.320727 
L 380.425058 126.877091 
L 380.493612 124.433455 
L 380.568358 121.989818 
L 380.649802 119.546182 
L 380.73836 117.102545 
L 380.834344 114.658909 
L 380.937948 112.215273 
L 381.049244 109.771636 
L 381.168173 107.328 
L 381.294547 104.884364 
L 381.428052 102.440727 
L 381.568254 99.997091 
L 381.714612 97.553455 
L 381.86649 95.109818 
L 382.023175 92.666182 
L 382.183892 90.222545 
L 382.347828 87.778909 
L 382.514151 85.335273 
L 382.682025 82.891636 
L 382.850637 80.448 
L 383.019203 78.004364 
L 383.186994 75.560727 
L 383.353341 73.117091 
L 383.517644 70.673455 
L 383.679383 68.229818 
L 383.838116 65.786182 
L 383.993483 63.342545 
L 384.145199 60.898909 
L 384.293056 58.455273 
L 384.436907 56.011636 
L 384.576668 53.568 
L 389.747561 53.568 
L 389.747561 53.568 
L 389.887321 56.011636 
L 390.031173 58.455273 
L 390.179029 60.898909 
L 390.330745 63.342545 
L 390.486112 65.786182 
L 390.644845 68.229818 
L 390.806584 70.673455 
L 390.970887 73.117091 
L 391.137234 75.560727 
L 391.305025 78.004364 
L 391.473592 80.448 
L 391.642203 82.891636 
L 391.810078 85.335273 
L 391.9764 87.778909 
L 392.140337 90.222545 
L 392.301054 92.666182 
L 392.457738 95.109818 
L 392.609616 97.553455 
L 392.755974 99.997091 
L 392.896177 102.440727 
L 393.029681 104.884364 
L 393.156055 107.328 
L 393.274984 109.771636 
L 393.38628 112.215273 
L 393.489884 114.658909 
L 393.585868 117.102545 
L 393.674426 119.546182 
L 393.75587 121.989818 
L 393.830616 124.433455 
L 393.899171 126.877091 
L 393.962115 129.320727 
L 394.020088 131.764364 
L 394.073764 134.208 
L 394.123842 136.651636 
L 394.171022 139.095273 
L 394.215993 141.538909 
L 394.259418 143.982545 
L 394.301926 146.426182 
L 394.344102 148.869818 
L 394.386485 151.313455 
L 394.42956 153.757091 
L 394.473764 156.200727 
L 394.519489 158.644364 
L 394.567081 161.088 
L 394.616849 163.531636 
L 394.669071 165.975273 
L 394.723996 168.418909 
L 394.781852 170.862545 
L 394.842849 173.306182 
L 394.907177 175.749818 
L 394.975013 178.193455 
L 395.046511 180.637091 
L 395.121805 183.080727 
L 395.201 185.524364 
L 395.284168 187.968 
L 395.371342 190.411636 
L 395.462507 192.855273 
L 395.557596 195.298909 
L 395.656484 197.742545 
L 395.758986 200.186182 
L 395.864857 202.629818 
L 395.973793 205.073455 
L 396.085434 207.517091 
L 396.199372 209.960727 
L 396.315159 212.404364 
L 396.43232 214.848 
L 396.550361 217.291636 
L 396.668783 219.735273 
L 396.787096 222.178909 
L 396.904825 224.622545 
L 397.021522 227.066182 
L 397.136767 229.509818 
L 397.250179 231.953455 
L 397.361403 234.397091 
L 397.470113 236.840727 
L 397.576001 239.284364 
L 397.678757 241.728 
L 397.778064 244.171636 
L 397.873568 246.615273 
L 397.964864 249.058909 
L 398.051478 251.502545 
L 398.132839 253.946182 
L 398.208273 256.389818 
L 398.276982 258.833455 
L 398.338038 261.277091 
L 398.390384 263.720727 
L 398.432831 266.164364 
L 398.464077 268.608 
L 398.482717 271.051636 
L 398.487273 273.495273 
L 398.476224 275.938909 
L 398.448043 278.382545 
L 398.401237 280.826182 
L 398.334389 283.269818 
L 398.246207 285.713455 
L 398.135569 288.157091 
L 398.00156 290.600727 
L 397.843518 293.044364 
L 397.661063 295.488 
z
" clip-path="url(#p6dbf814326)" style="fill: #1f77b4; fill-opacity: 0.3"/>
   </g>
   <g id="matplotlib.axis_1">
    <g id="xtick_1">
     <g id="line2d_1">
      <defs>
       <path id="ma459745ac8" d="M 0 0 
L 0 3.5 
" style="stroke: #000000; stroke-width: 0.8"/>
      </defs>
      <g>
       <use xlink:href="#ma459745ac8" x="85.157886" y="307.584" style="stroke: #000000; stroke-width: 0.8"/>
      </g>
     </g>
     <g id="text_1">
      <!-- Var. Values -->
      <g transform="translate(57.94773 322.182437)scale(0.1 -0.1)">
       <defs>
        <path id="DejaVuSans-56" d="M 1831 0 
L 50 4666 
L 709 4666 
L 2188 738 
L 3669 4666 
L 4325 4666 
L 2547 0 
L 1831 0 
z
" transform="scale(0.015625)"/>
        <path id="DejaVuSans-61" d="M 2194 1759 
Q 1497 1759 1228 1600 
Q 959 1441 959 1056 
Q 959 750 1161 570 
Q 1363 391 1709 391 
Q 2188 391 2477 730 
Q 2766 1069 2766 1631 
L 2766 1759 
L 2194 1759 
z
M 3341 1997 
L 3341 0 
L 2766 0 
L 2766 531 
Q 2569 213 2275 61 
Q 1981 -91 1556 -91 
Q 1019 -91 701 211 
Q 384 513 384 1019 
Q 384 1609 779 1909 
Q 1175 2209 1959 2209 
L 2766 2209 
L 2766 2266 
Q 2766 2663 2505 2880 
Q 2244 3097 1772 3097 
Q 1472 3097 1187 3025 
Q 903 2953 641 2809 
L 641 3341 
Q 956 3463 1253 3523 
Q 1550 3584 1831 3584 
Q 2591 3584 2966 3190 
Q 3341 2797 3341 1997 
z
" transform="scale(0.015625)"/>
        <path id="DejaVuSans-72" d="M 2631 2963 
Q 2534 3019 2420 3045 
Q 2306 3072 2169 3072 
Q 1681 3072 1420 2755 
Q 1159 2438 1159 1844 
L 1159 0 
L 581 0 
L 581 3500 
L 1159 3500 
L 1159 2956 
Q 1341 3275 1631 3429 
Q 1922 3584 2338 3584 
Q 2397 3584 2469 3576 
Q 2541 3569 2628 3553 
L 2631 2963 
z
" transform="scale(0.015625)"/>
        <path id="DejaVuSans-2e" d="M 684 794 
L 1344 794 
L 1344 0 
L 684 0 
L 684 794 
z
" transform="scale(0.015625)"/>
        <path id="DejaVuSans-20" transform="scale(0.015625)"/>
        <path id="DejaVuSans-6c" d="M 603 4863 
L 1178 4863 
L 1178 0 
L 603 0 
L 603 4863 
z
" transform="scale(0.015625)"/>
        <path id="DejaVuSans-75" d="M 544 1381 
L 544 3500 
L 1119 3500 
L 1119 1403 
Q 1119 906 1312 657 
Q 1506 409 1894 409 
Q 2359 409 2629 706 
Q 2900 1003 2900 1516 
L 2900 3500 
L 3475 3500 
L 3475 0 
L 2900 0 
L 2900 538 
Q 2691 219 2414 64 
Q 2138 -91 1772 -91 
Q 1169 -91 856 284 
Q 544 659 544 1381 
z
M 1991 3584 
L 1991 3584 
z
" transform="scale(0.015625)"/>
        <path id="DejaVuSans-65" d="M 3597 1894 
L 3597 1613 
L 953 1613 
Q 991 1019 1311 708 
Q 1631 397 2203 397 
Q 2534 397 2845 478 
Q 3156 559 3463 722 
L 3463 178 
Q 3153 47 2828 -22 
Q 2503 -91 2169 -91 
Q 1331 -91 842 396 
Q 353 884 353 1716 
Q 353 2575 817 3079 
Q 1281 3584 2069 3584 
Q 2775 3584 3186 3129 
Q 3597 2675 3597 1894 
z
M 3022 2063 
Q 3016 2534 2758 2815 
Q 2500 3097 2075 3097 
Q 1594 3097 1305 2825 
Q 1016 2553 972 2059 
L 3022 2063 
z
" transform="scale(0.015625)"/>
        <path id="DejaVuSans-73" d="M 2834 3397 
L 2834 2853 
Q 2591 2978 2328 3040 
Q 2066 3103 1784 3103 
Q 1356 3103 1142 2972 
Q 928 2841 928 2578 
Q 928 2378 1081 2264 
Q 1234 2150 1697 2047 
L 1894 2003 
Q 2506 1872 2764 1633 
Q 3022 1394 3022 966 
Q 3022 478 2636 193 
Q 2250 -91 1575 -91 
Q 1294 -91 989 -36 
Q 684 19 347 128 
L 347 722 
Q 666 556 975 473 
Q 1284 391 1588 391 
Q 1994 391 2212 530 
Q 2431 669 2431 922 
Q 2431 1156 2273 1281 
Q 2116 1406 1581 1522 
L 1381 1569 
Q 847 1681 609 1914 
Q 372 2147 372 2553 
Q 372 3047 722 3315 
Q 1072 3584 1716 3584 
Q 2034 3584 2315 3537 
Q 2597 3491 2834 3397 
z
" transform="scale(0.015625)"/>
       </defs>
       <use xlink:href="#DejaVuSans-56"/>
       <use xlink:href="#DejaVuSans-61" x="60.658203"/>
       <use xlink:href="#DejaVuSans-72" x="121.9375"/>
       <use xlink:href="#DejaVuSans-2e" x="153.925781"/>
       <use xlink:href="#DejaVuSans-20" x="185.712891"/>
       <use xlink:href="#DejaVuSans-56" x="217.5"/>
       <use xlink:href="#DejaVuSans-61" x="278.158203"/>
       <use xlink:href="#DejaVuSans-6c" x="339.4375"/>
       <use xlink:href="#DejaVuSans-75" x="367.220703"/>
       <use xlink:href="#DejaVuSans-65" x="430.599609"/>
       <use xlink:href="#DejaVuSans-73" x="492.123047"/>
      </g>
     </g>
    </g>
    <g id="xtick_2">
     <g id="line2d_2">
      <g>
       <use xlink:href="#ma459745ac8" x="160.658943" y="307.584" style="stroke: #000000; stroke-width: 0.8"/>
      </g>
     </g>
     <g id="text_2">
      <!-- Arg. Methods -->
      <g transform="translate(127.560505 322.182437)scale(0.1 -0.1)">
       <defs>
        <path id="DejaVuSans-41" d="M 2188 4044 
L 1331 1722 
L 3047 1722 
L 2188 4044 
z
M 1831 4666 
L 2547 4666 
L 4325 0 
L 3669 0 
L 3244 1197 
L 1141 1197 
L 716 0 
L 50 0 
L 1831 4666 
z
" transform="scale(0.015625)"/>
        <path id="DejaVuSans-67" d="M 2906 1791 
Q 2906 2416 2648 2759 
Q 2391 3103 1925 3103 
Q 1463 3103 1205 2759 
Q 947 2416 947 1791 
Q 947 1169 1205 825 
Q 1463 481 1925 481 
Q 2391 481 2648 825 
Q 2906 1169 2906 1791 
z
M 3481 434 
Q 3481 -459 3084 -895 
Q 2688 -1331 1869 -1331 
Q 1566 -1331 1297 -1286 
Q 1028 -1241 775 -1147 
L 775 -588 
Q 1028 -725 1275 -790 
Q 1522 -856 1778 -856 
Q 2344 -856 2625 -561 
Q 2906 -266 2906 331 
L 2906 616 
Q 2728 306 2450 153 
Q 2172 0 1784 0 
Q 1141 0 747 490 
Q 353 981 353 1791 
Q 353 2603 747 3093 
Q 1141 3584 1784 3584 
Q 2172 3584 2450 3431 
Q 2728 3278 2906 2969 
L 2906 3500 
L 3481 3500 
L 3481 434 
z
" transform="scale(0.015625)"/>
        <path id="DejaVuSans-4d" d="M 628 4666 
L 1569 4666 
L 2759 1491 
L 3956 4666 
L 4897 4666 
L 4897 0 
L 4281 0 
L 4281 4097 
L 3078 897 
L 2444 897 
L 1241 4097 
L 1241 0 
L 628 0 
L 628 4666 
z
" transform="scale(0.015625)"/>
        <path id="DejaVuSans-74" d="M 1172 4494 
L 1172 3500 
L 2356 3500 
L 2356 3053 
L 1172 3053 
L 1172 1153 
Q 1172 725 1289 603 
Q 1406 481 1766 481 
L 2356 481 
L 2356 0 
L 1766 0 
Q 1100 0 847 248 
Q 594 497 594 1153 
L 594 3053 
L 172 3053 
L 172 3500 
L 594 3500 
L 594 4494 
L 1172 4494 
z
" transform="scale(0.015625)"/>
        <path id="DejaVuSans-68" d="M 3513 2113 
L 3513 0 
L 2938 0 
L 2938 2094 
Q 2938 2591 2744 2837 
Q 2550 3084 2163 3084 
Q 1697 3084 1428 2787 
Q 1159 2491 1159 1978 
L 1159 0 
L 581 0 
L 581 4863 
L 1159 4863 
L 1159 2956 
Q 1366 3272 1645 3428 
Q 1925 3584 2291 3584 
Q 2894 3584 3203 3211 
Q 3513 2838 3513 2113 
z
" transform="scale(0.015625)"/>
        <path id="DejaVuSans-6f" d="M 1959 3097 
Q 1497 3097 1228 2736 
Q 959 2375 959 1747 
Q 959 1119 1226 758 
Q 1494 397 1959 397 
Q 2419 397 2687 759 
Q 2956 1122 2956 1747 
Q 2956 2369 2687 2733 
Q 2419 3097 1959 3097 
z
M 1959 3584 
Q 2709 3584 3137 3096 
Q 3566 2609 3566 1747 
Q 3566 888 3137 398 
Q 2709 -91 1959 -91 
Q 1206 -91 779 398 
Q 353 888 353 1747 
Q 353 2609 779 3096 
Q 1206 3584 1959 3584 
z
" transform="scale(0.015625)"/>
        <path id="DejaVuSans-64" d="M 2906 2969 
L 2906 4863 
L 3481 4863 
L 3481 0 
L 2906 0 
L 2906 525 
Q 2725 213 2448 61 
Q 2172 -91 1784 -91 
Q 1150 -91 751 415 
Q 353 922 353 1747 
Q 353 2572 751 3078 
Q 1150 3584 1784 3584 
Q 2172 3584 2448 3432 
Q 2725 3281 2906 2969 
z
M 947 1747 
Q 947 1113 1208 752 
Q 1469 391 1925 391 
Q 2381 391 2643 752 
Q 2906 1113 2906 1747 
Q 2906 2381 2643 2742 
Q 2381 3103 1925 3103 
Q 1469 3103 1208 2742 
Q 947 2381 947 1747 
z
" transform="scale(0.015625)"/>
       </defs>
       <use xlink:href="#DejaVuSans-41"/>
       <use xlink:href="#DejaVuSans-72" x="68.408203"/>
       <use xlink:href="#DejaVuSans-67" x="107.771484"/>
       <use xlink:href="#DejaVuSans-2e" x="171.248047"/>
       <use xlink:href="#DejaVuSans-20" x="203.035156"/>
       <use xlink:href="#DejaVuSans-4d" x="234.822266"/>
       <use xlink:href="#DejaVuSans-65" x="321.101562"/>
       <use xlink:href="#DejaVuSans-74" x="382.625"/>
       <use xlink:href="#DejaVuSans-68" x="421.833984"/>
       <use xlink:href="#DejaVuSans-6f" x="485.212891"/>
       <use xlink:href="#DejaVuSans-64" x="546.394531"/>
       <use xlink:href="#DejaVuSans-73" x="609.871094"/>
      </g>
     </g>
    </g>
    <g id="xtick_3">
     <g id="line2d_3">
      <g>
       <use xlink:href="#ma459745ac8" x="236.16" y="307.584" style="stroke: #000000; stroke-width: 0.8"/>
      </g>
     </g>
     <g id="text_3">
      <!-- Test Length -->
      <g transform="translate(207.47875 322.182437)scale(0.1 -0.1)">
       <defs>
        <path id="DejaVuSans-54" d="M -19 4666 
L 3928 4666 
L 3928 4134 
L 2272 4134 
L 2272 0 
L 1638 0 
L 1638 4134 
L -19 4134 
L -19 4666 
z
" transform="scale(0.015625)"/>
        <path id="DejaVuSans-4c" d="M 628 4666 
L 1259 4666 
L 1259 531 
L 3531 531 
L 3531 0 
L 628 0 
L 628 4666 
z
" transform="scale(0.015625)"/>
        <path id="DejaVuSans-6e" d="M 3513 2113 
L 3513 0 
L 2938 0 
L 2938 2094 
Q 2938 2591 2744 2837 
Q 2550 3084 2163 3084 
Q 1697 3084 1428 2787 
Q 1159 2491 1159 1978 
L 1159 0 
L 581 0 
L 581 3500 
L 1159 3500 
L 1159 2956 
Q 1366 3272 1645 3428 
Q 1925 3584 2291 3584 
Q 2894 3584 3203 3211 
Q 3513 2838 3513 2113 
z
" transform="scale(0.015625)"/>
       </defs>
       <use xlink:href="#DejaVuSans-54"/>
       <use xlink:href="#DejaVuSans-65" x="44.083984"/>
       <use xlink:href="#DejaVuSans-73" x="105.607422"/>
       <use xlink:href="#DejaVuSans-74" x="157.707031"/>
       <use xlink:href="#DejaVuSans-20" x="196.916016"/>
       <use xlink:href="#DejaVuSans-4c" x="228.703125"/>
       <use xlink:href="#DejaVuSans-65" x="282.666016"/>
       <use xlink:href="#DejaVuSans-6e" x="344.189453"/>
       <use xlink:href="#DejaVuSans-67" x="407.568359"/>
       <use xlink:href="#DejaVuSans-74" x="471.044922"/>
       <use xlink:href="#DejaVuSans-68" x="510.253906"/>
      </g>
     </g>
    </g>
    <g id="xtick_4">
     <g id="line2d_4">
      <g>
       <use xlink:href="#ma459745ac8" x="311.661057" y="307.584" style="stroke: #000000; stroke-width: 0.8"/>
      </g>
     </g>
     <g id="text_4">
      <!-- Num. Class/Meth -->
      <g transform="translate(269.345432 322.182437)scale(0.1 -0.1)">
       <defs>
        <path id="DejaVuSans-4e" d="M 628 4666 
L 1478 4666 
L 3547 763 
L 3547 4666 
L 4159 4666 
L 4159 0 
L 3309 0 
L 1241 3903 
L 1241 0 
L 628 0 
L 628 4666 
z
" transform="scale(0.015625)"/>
        <path id="DejaVuSans-6d" d="M 3328 2828 
Q 3544 3216 3844 3400 
Q 4144 3584 4550 3584 
Q 5097 3584 5394 3201 
Q 5691 2819 5691 2113 
L 5691 0 
L 5113 0 
L 5113 2094 
Q 5113 2597 4934 2840 
Q 4756 3084 4391 3084 
Q 3944 3084 3684 2787 
Q 3425 2491 3425 1978 
L 3425 0 
L 2847 0 
L 2847 2094 
Q 2847 2600 2669 2842 
Q 2491 3084 2119 3084 
Q 1678 3084 1418 2786 
Q 1159 2488 1159 1978 
L 1159 0 
L 581 0 
L 581 3500 
L 1159 3500 
L 1159 2956 
Q 1356 3278 1631 3431 
Q 1906 3584 2284 3584 
Q 2666 3584 2933 3390 
Q 3200 3197 3328 2828 
z
" transform="scale(0.015625)"/>
        <path id="DejaVuSans-43" d="M 4122 4306 
L 4122 3641 
Q 3803 3938 3442 4084 
Q 3081 4231 2675 4231 
Q 1875 4231 1450 3742 
Q 1025 3253 1025 2328 
Q 1025 1406 1450 917 
Q 1875 428 2675 428 
Q 3081 428 3442 575 
Q 3803 722 4122 1019 
L 4122 359 
Q 3791 134 3420 21 
Q 3050 -91 2638 -91 
Q 1578 -91 968 557 
Q 359 1206 359 2328 
Q 359 3453 968 4101 
Q 1578 4750 2638 4750 
Q 3056 4750 3426 4639 
Q 3797 4528 4122 4306 
z
" transform="scale(0.015625)"/>
        <path id="DejaVuSans-2f" d="M 1625 4666 
L 2156 4666 
L 531 -594 
L 0 -594 
L 1625 4666 
z
" transform="scale(0.015625)"/>
       </defs>
       <use xlink:href="#DejaVuSans-4e"/>
       <use xlink:href="#DejaVuSans-75" x="74.804688"/>
       <use xlink:href="#DejaVuSans-6d" x="138.183594"/>
       <use xlink:href="#DejaVuSans-2e" x="235.595703"/>
       <use xlink:href="#DejaVuSans-20" x="267.382812"/>
       <use xlink:href="#DejaVuSans-43" x="299.169922"/>
       <use xlink:href="#DejaVuSans-6c" x="368.994141"/>
       <use xlink:href="#DejaVuSans-61" x="396.777344"/>
       <use xlink:href="#DejaVuSans-73" x="458.056641"/>
       <use xlink:href="#DejaVuSans-73" x="510.15625"/>
       <use xlink:href="#DejaVuSans-2f" x="562.255859"/>
       <use xlink:href="#DejaVuSans-4d" x="595.947266"/>
       <use xlink:href="#DejaVuSans-65" x="682.226562"/>
       <use xlink:href="#DejaVuSans-74" x="743.75"/>
       <use xlink:href="#DejaVuSans-68" x="782.958984"/>
      </g>
     </g>
    </g>
    <g id="xtick_5">
     <g id="line2d_5">
      <g>
       <use xlink:href="#ma459745ac8" x="387.162114" y="307.584" style="stroke: #000000; stroke-width: 0.8"/>
      </g>
     </g>
     <g id="text_5">
      <!-- Similarity -->
      <g transform="translate(363.52227 322.182437)scale(0.1 -0.1)">
       <defs>
        <path id="DejaVuSans-53" d="M 3425 4513 
L 3425 3897 
Q 3066 4069 2747 4153 
Q 2428 4238 2131 4238 
Q 1616 4238 1336 4038 
Q 1056 3838 1056 3469 
Q 1056 3159 1242 3001 
Q 1428 2844 1947 2747 
L 2328 2669 
Q 3034 2534 3370 2195 
Q 3706 1856 3706 1288 
Q 3706 609 3251 259 
Q 2797 -91 1919 -91 
Q 1588 -91 1214 -16 
Q 841 59 441 206 
L 441 856 
Q 825 641 1194 531 
Q 1563 422 1919 422 
Q 2459 422 2753 634 
Q 3047 847 3047 1241 
Q 3047 1584 2836 1778 
Q 2625 1972 2144 2069 
L 1759 2144 
Q 1053 2284 737 2584 
Q 422 2884 422 3419 
Q 422 4038 858 4394 
Q 1294 4750 2059 4750 
Q 2388 4750 2728 4690 
Q 3069 4631 3425 4513 
z
" transform="scale(0.015625)"/>
        <path id="DejaVuSans-69" d="M 603 3500 
L 1178 3500 
L 1178 0 
L 603 0 
L 603 3500 
z
M 603 4863 
L 1178 4863 
L 1178 4134 
L 603 4134 
L 603 4863 
z
" transform="scale(0.015625)"/>
        <path id="DejaVuSans-79" d="M 2059 -325 
Q 1816 -950 1584 -1140 
Q 1353 -1331 966 -1331 
L 506 -1331 
L 506 -850 
L 844 -850 
Q 1081 -850 1212 -737 
Q 1344 -625 1503 -206 
L 1606 56 
L 191 3500 
L 800 3500 
L 1894 763 
L 2988 3500 
L 3597 3500 
L 2059 -325 
z
" transform="scale(0.015625)"/>
       </defs>
       <use xlink:href="#DejaVuSans-53"/>
       <use xlink:href="#DejaVuSans-69" x="63.476562"/>
       <use xlink:href="#DejaVuSans-6d" x="91.259766"/>
       <use xlink:href="#DejaVuSans-69" x="188.671875"/>
       <use xlink:href="#DejaVuSans-6c" x="216.455078"/>
       <use xlink:href="#DejaVuSans-61" x="244.238281"/>
       <use xlink:href="#DejaVuSans-72" x="305.517578"/>
       <use xlink:href="#DejaVuSans-69" x="346.630859"/>
       <use xlink:href="#DejaVuSans-74" x="374.414062"/>
       <use xlink:href="#DejaVuSans-79" x="413.623047"/>
      </g>
     </g>
    </g>
    <g id="text_6">
     <!-- Readability aspect -->
     <g transform="translate(173.335312 337.38025)scale(0.12 -0.12)">
      <defs>
       <path id="DejaVuSans-Bold-52" d="M 2297 2597 
Q 2675 2597 2839 2737 
Q 3003 2878 3003 3200 
Q 3003 3519 2839 3656 
Q 2675 3794 2297 3794 
L 1791 3794 
L 1791 2597 
L 2297 2597 
z
M 1791 1766 
L 1791 0 
L 588 0 
L 588 4666 
L 2425 4666 
Q 3347 4666 3776 4356 
Q 4206 4047 4206 3378 
Q 4206 2916 3982 2619 
Q 3759 2322 3309 2181 
Q 3556 2125 3751 1926 
Q 3947 1728 4147 1325 
L 4800 0 
L 3519 0 
L 2950 1159 
Q 2778 1509 2601 1637 
Q 2425 1766 2131 1766 
L 1791 1766 
z
" transform="scale(0.015625)"/>
       <path id="DejaVuSans-Bold-65" d="M 4031 1759 
L 4031 1441 
L 1416 1441 
Q 1456 1047 1700 850 
Q 1944 653 2381 653 
Q 2734 653 3104 758 
Q 3475 863 3866 1075 
L 3866 213 
Q 3469 63 3072 -14 
Q 2675 -91 2278 -91 
Q 1328 -91 801 392 
Q 275 875 275 1747 
Q 275 2603 792 3093 
Q 1309 3584 2216 3584 
Q 3041 3584 3536 3087 
Q 4031 2591 4031 1759 
z
M 2881 2131 
Q 2881 2450 2695 2645 
Q 2509 2841 2209 2841 
Q 1884 2841 1681 2658 
Q 1478 2475 1428 2131 
L 2881 2131 
z
" transform="scale(0.015625)"/>
       <path id="DejaVuSans-Bold-61" d="M 2106 1575 
Q 1756 1575 1579 1456 
Q 1403 1338 1403 1106 
Q 1403 894 1545 773 
Q 1688 653 1941 653 
Q 2256 653 2472 879 
Q 2688 1106 2688 1447 
L 2688 1575 
L 2106 1575 
z
M 3816 1997 
L 3816 0 
L 2688 0 
L 2688 519 
Q 2463 200 2181 54 
Q 1900 -91 1497 -91 
Q 953 -91 614 226 
Q 275 544 275 1050 
Q 275 1666 698 1953 
Q 1122 2241 2028 2241 
L 2688 2241 
L 2688 2328 
Q 2688 2594 2478 2717 
Q 2269 2841 1825 2841 
Q 1466 2841 1156 2769 
Q 847 2697 581 2553 
L 581 3406 
Q 941 3494 1303 3539 
Q 1666 3584 2028 3584 
Q 2975 3584 3395 3211 
Q 3816 2838 3816 1997 
z
" transform="scale(0.015625)"/>
       <path id="DejaVuSans-Bold-64" d="M 2919 2988 
L 2919 4863 
L 4044 4863 
L 4044 0 
L 2919 0 
L 2919 506 
Q 2688 197 2409 53 
Q 2131 -91 1766 -91 
Q 1119 -91 703 423 
Q 288 938 288 1747 
Q 288 2556 703 3070 
Q 1119 3584 1766 3584 
Q 2128 3584 2408 3439 
Q 2688 3294 2919 2988 
z
M 2181 722 
Q 2541 722 2730 984 
Q 2919 1247 2919 1747 
Q 2919 2247 2730 2509 
Q 2541 2772 2181 2772 
Q 1825 2772 1636 2509 
Q 1447 2247 1447 1747 
Q 1447 1247 1636 984 
Q 1825 722 2181 722 
z
" transform="scale(0.015625)"/>
       <path id="DejaVuSans-Bold-62" d="M 2400 722 
Q 2759 722 2948 984 
Q 3138 1247 3138 1747 
Q 3138 2247 2948 2509 
Q 2759 2772 2400 2772 
Q 2041 2772 1848 2508 
Q 1656 2244 1656 1747 
Q 1656 1250 1848 986 
Q 2041 722 2400 722 
z
M 1656 2988 
Q 1888 3294 2169 3439 
Q 2450 3584 2816 3584 
Q 3463 3584 3878 3070 
Q 4294 2556 4294 1747 
Q 4294 938 3878 423 
Q 3463 -91 2816 -91 
Q 2450 -91 2169 54 
Q 1888 200 1656 506 
L 1656 0 
L 538 0 
L 538 4863 
L 1656 4863 
L 1656 2988 
z
" transform="scale(0.015625)"/>
       <path id="DejaVuSans-Bold-69" d="M 538 3500 
L 1656 3500 
L 1656 0 
L 538 0 
L 538 3500 
z
M 538 4863 
L 1656 4863 
L 1656 3950 
L 538 3950 
L 538 4863 
z
" transform="scale(0.015625)"/>
       <path id="DejaVuSans-Bold-6c" d="M 538 4863 
L 1656 4863 
L 1656 0 
L 538 0 
L 538 4863 
z
" transform="scale(0.015625)"/>
       <path id="DejaVuSans-Bold-74" d="M 1759 4494 
L 1759 3500 
L 2913 3500 
L 2913 2700 
L 1759 2700 
L 1759 1216 
Q 1759 972 1856 886 
Q 1953 800 2241 800 
L 2816 800 
L 2816 0 
L 1856 0 
Q 1194 0 917 276 
Q 641 553 641 1216 
L 641 2700 
L 84 2700 
L 84 3500 
L 641 3500 
L 641 4494 
L 1759 4494 
z
" transform="scale(0.015625)"/>
       <path id="DejaVuSans-Bold-79" d="M 78 3500 
L 1197 3500 
L 2138 1125 
L 2938 3500 
L 4056 3500 
L 2584 -331 
Q 2363 -916 2067 -1148 
Q 1772 -1381 1288 -1381 
L 641 -1381 
L 641 -647 
L 991 -647 
Q 1275 -647 1404 -556 
Q 1534 -466 1606 -231 
L 1638 -134 
L 78 3500 
z
" transform="scale(0.015625)"/>
       <path id="DejaVuSans-Bold-20" transform="scale(0.015625)"/>
       <path id="DejaVuSans-Bold-73" d="M 3272 3391 
L 3272 2541 
Q 2913 2691 2578 2766 
Q 2244 2841 1947 2841 
Q 1628 2841 1473 2761 
Q 1319 2681 1319 2516 
Q 1319 2381 1436 2309 
Q 1553 2238 1856 2203 
L 2053 2175 
Q 2913 2066 3209 1816 
Q 3506 1566 3506 1031 
Q 3506 472 3093 190 
Q 2681 -91 1863 -91 
Q 1516 -91 1145 -36 
Q 775 19 384 128 
L 384 978 
Q 719 816 1070 734 
Q 1422 653 1784 653 
Q 2113 653 2278 743 
Q 2444 834 2444 1013 
Q 2444 1163 2330 1236 
Q 2216 1309 1875 1350 
L 1678 1375 
Q 931 1469 631 1722 
Q 331 1975 331 2491 
Q 331 3047 712 3315 
Q 1094 3584 1881 3584 
Q 2191 3584 2531 3537 
Q 2872 3491 3272 3391 
z
" transform="scale(0.015625)"/>
       <path id="DejaVuSans-Bold-70" d="M 1656 506 
L 1656 -1331 
L 538 -1331 
L 538 3500 
L 1656 3500 
L 1656 2988 
Q 1888 3294 2169 3439 
Q 2450 3584 2816 3584 
Q 3463 3584 3878 3070 
Q 4294 2556 4294 1747 
Q 4294 938 3878 423 
Q 3463 -91 2816 -91 
Q 2450 -91 2169 54 
Q 1888 200 1656 506 
z
M 2400 2772 
Q 2041 2772 1848 2508 
Q 1656 2244 1656 1747 
Q 1656 1250 1848 986 
Q 2041 722 2400 722 
Q 2759 722 2948 984 
Q 3138 1247 3138 1747 
Q 3138 2247 2948 2509 
Q 2759 2772 2400 2772 
z
" transform="scale(0.015625)"/>
       <path id="DejaVuSans-Bold-63" d="M 3366 3391 
L 3366 2478 
Q 3138 2634 2908 2709 
Q 2678 2784 2431 2784 
Q 1963 2784 1702 2511 
Q 1441 2238 1441 1747 
Q 1441 1256 1702 982 
Q 1963 709 2431 709 
Q 2694 709 2930 787 
Q 3166 866 3366 1019 
L 3366 103 
Q 3103 6 2833 -42 
Q 2563 -91 2291 -91 
Q 1344 -91 809 395 
Q 275 881 275 1747 
Q 275 2613 809 3098 
Q 1344 3584 2291 3584 
Q 2566 3584 2833 3536 
Q 3100 3488 3366 3391 
z
" transform="scale(0.015625)"/>
      </defs>
      <use xlink:href="#DejaVuSans-Bold-52"/>
      <use xlink:href="#DejaVuSans-Bold-65" x="77.001953"/>
      <use xlink:href="#DejaVuSans-Bold-61" x="144.824219"/>
      <use xlink:href="#DejaVuSans-Bold-64" x="212.304688"/>
      <use xlink:href="#DejaVuSans-Bold-61" x="283.886719"/>
      <use xlink:href="#DejaVuSans-Bold-62" x="351.367188"/>
      <use xlink:href="#DejaVuSans-Bold-69" x="422.949219"/>
      <use xlink:href="#DejaVuSans-Bold-6c" x="457.226562"/>
      <use xlink:href="#DejaVuSans-Bold-69" x="491.503906"/>
      <use xlink:href="#DejaVuSans-Bold-74" x="525.78125"/>
      <use xlink:href="#DejaVuSans-Bold-79" x="573.583984"/>
      <use xlink:href="#DejaVuSans-Bold-20" x="638.769531"/>
      <use xlink:href="#DejaVuSans-Bold-61" x="673.583984"/>
      <use xlink:href="#DejaVuSans-Bold-73" x="741.064453"/>
      <use xlink:href="#DejaVuSans-Bold-70" x="800.585938"/>
      <use xlink:href="#DejaVuSans-Bold-65" x="872.167969"/>
      <use xlink:href="#DejaVuSans-Bold-63" x="939.990234"/>
      <use xlink:href="#DejaVuSans-Bold-74" x="999.267578"/>
     </g>
    </g>
   </g>
   <g id="matplotlib.axis_2">
    <g id="ytick_1">
     <g id="line2d_6">
      <defs>
       <path id="m3dc4b20807" d="M 0 0 
L -3.5 0 
" style="stroke: #000000; stroke-width: 0.8"/>
      </defs>
      <g>
       <use xlink:href="#m3dc4b20807" x="57.6" y="295.488" style="stroke: #000000; stroke-width: 0.8"/>
      </g>
     </g>
     <g id="text_7">
      <!-- 1 -->
      <g transform="translate(44.2375 299.287219)scale(0.1 -0.1)">
       <defs>
        <path id="DejaVuSans-31" d="M 794 531 
L 1825 531 
L 1825 4091 
L 703 3866 
L 703 4441 
L 1819 4666 
L 2450 4666 
L 2450 531 
L 3481 531 
L 3481 0 
L 794 0 
L 794 531 
z
" transform="scale(0.015625)"/>
       </defs>
       <use xlink:href="#DejaVuSans-31"/>
      </g>
     </g>
    </g>
    <g id="ytick_2">
     <g id="line2d_7">
      <g>
       <use xlink:href="#m3dc4b20807" x="57.6" y="235.008" style="stroke: #000000; stroke-width: 0.8"/>
      </g>
     </g>
     <g id="text_8">
      <!-- 2 -->
      <g transform="translate(44.2375 238.807219)scale(0.1 -0.1)">
       <defs>
        <path id="DejaVuSans-32" d="M 1228 531 
L 3431 531 
L 3431 0 
L 469 0 
L 469 531 
Q 828 903 1448 1529 
Q 2069 2156 2228 2338 
Q 2531 2678 2651 2914 
Q 2772 3150 2772 3378 
Q 2772 3750 2511 3984 
Q 2250 4219 1831 4219 
Q 1534 4219 1204 4116 
Q 875 4013 500 3803 
L 500 4441 
Q 881 4594 1212 4672 
Q 1544 4750 1819 4750 
Q 2544 4750 2975 4387 
Q 3406 4025 3406 3419 
Q 3406 3131 3298 2873 
Q 3191 2616 2906 2266 
Q 2828 2175 2409 1742 
Q 1991 1309 1228 531 
z
" transform="scale(0.015625)"/>
       </defs>
       <use xlink:href="#DejaVuSans-32"/>
      </g>
     </g>
    </g>
    <g id="ytick_3">
     <g id="line2d_8">
      <g>
       <use xlink:href="#m3dc4b20807" x="57.6" y="174.528" style="stroke: #000000; stroke-width: 0.8"/>
      </g>
     </g>
     <g id="text_9">
      <!-- 3 -->
      <g transform="translate(44.2375 178.327219)scale(0.1 -0.1)">
       <defs>
        <path id="DejaVuSans-33" d="M 2597 2516 
Q 3050 2419 3304 2112 
Q 3559 1806 3559 1356 
Q 3559 666 3084 287 
Q 2609 -91 1734 -91 
Q 1441 -91 1130 -33 
Q 819 25 488 141 
L 488 750 
Q 750 597 1062 519 
Q 1375 441 1716 441 
Q 2309 441 2620 675 
Q 2931 909 2931 1356 
Q 2931 1769 2642 2001 
Q 2353 2234 1838 2234 
L 1294 2234 
L 1294 2753 
L 1863 2753 
Q 2328 2753 2575 2939 
Q 2822 3125 2822 3475 
Q 2822 3834 2567 4026 
Q 2313 4219 1838 4219 
Q 1578 4219 1281 4162 
Q 984 4106 628 3988 
L 628 4550 
Q 988 4650 1302 4700 
Q 1616 4750 1894 4750 
Q 2613 4750 3031 4423 
Q 3450 4097 3450 3541 
Q 3450 3153 3228 2886 
Q 3006 2619 2597 2516 
z
" transform="scale(0.015625)"/>
       </defs>
       <use xlink:href="#DejaVuSans-33"/>
      </g>
     </g>
    </g>
    <g id="ytick_4">
     <g id="line2d_9">
      <g>
       <use xlink:href="#m3dc4b20807" x="57.6" y="114.048" style="stroke: #000000; stroke-width: 0.8"/>
      </g>
     </g>
     <g id="text_10">
      <!-- 4 -->
      <g transform="translate(44.2375 117.847219)scale(0.1 -0.1)">
       <defs>
        <path id="DejaVuSans-34" d="M 2419 4116 
L 825 1625 
L 2419 1625 
L 2419 4116 
z
M 2253 4666 
L 3047 4666 
L 3047 1625 
L 3713 1625 
L 3713 1100 
L 3047 1100 
L 3047 0 
L 2419 0 
L 2419 1100 
L 313 1100 
L 313 1709 
L 2253 4666 
z
" transform="scale(0.015625)"/>
       </defs>
       <use xlink:href="#DejaVuSans-34"/>
      </g>
     </g>
    </g>
    <g id="ytick_5">
     <g id="line2d_10">
      <g>
       <use xlink:href="#m3dc4b20807" x="57.6" y="53.568" style="stroke: #000000; stroke-width: 0.8"/>
      </g>
     </g>
     <g id="text_11">
      <!-- 5 -->
      <g transform="translate(44.2375 57.367219)scale(0.1 -0.1)">
       <defs>
        <path id="DejaVuSans-35" d="M 691 4666 
L 3169 4666 
L 3169 4134 
L 1269 4134 
L 1269 2991 
Q 1406 3038 1543 3061 
Q 1681 3084 1819 3084 
Q 2600 3084 3056 2656 
Q 3513 2228 3513 1497 
Q 3513 744 3044 326 
Q 2575 -91 1722 -91 
Q 1428 -91 1123 -41 
Q 819 9 494 109 
L 494 744 
Q 775 591 1075 516 
Q 1375 441 1709 441 
Q 2250 441 2565 725 
Q 2881 1009 2881 1497 
Q 2881 1984 2565 2268 
Q 2250 2553 1709 2553 
Q 1456 2553 1204 2497 
Q 953 2441 691 2322 
L 691 4666 
z
" transform="scale(0.015625)"/>
       </defs>
       <use xlink:href="#DejaVuSans-35"/>
      </g>
     </g>
    </g>
    <g id="text_12">
     <!-- Rating -->
     <g transform="translate(37.648125 196.687687)rotate(-90)scale(0.12 -0.12)">
      <defs>
       <path id="DejaVuSans-Bold-6e" d="M 4056 2131 
L 4056 0 
L 2931 0 
L 2931 347 
L 2931 1631 
Q 2931 2084 2911 2256 
Q 2891 2428 2841 2509 
Q 2775 2619 2662 2680 
Q 2550 2741 2406 2741 
Q 2056 2741 1856 2470 
Q 1656 2200 1656 1722 
L 1656 0 
L 538 0 
L 538 3500 
L 1656 3500 
L 1656 2988 
Q 1909 3294 2193 3439 
Q 2478 3584 2822 3584 
Q 3428 3584 3742 3212 
Q 4056 2841 4056 2131 
z
" transform="scale(0.015625)"/>
       <path id="DejaVuSans-Bold-67" d="M 2919 594 
Q 2688 288 2409 144 
Q 2131 0 1766 0 
Q 1125 0 706 504 
Q 288 1009 288 1791 
Q 288 2575 706 3076 
Q 1125 3578 1766 3578 
Q 2131 3578 2409 3434 
Q 2688 3291 2919 2981 
L 2919 3500 
L 4044 3500 
L 4044 353 
Q 4044 -491 3511 -936 
Q 2978 -1381 1966 -1381 
Q 1638 -1381 1331 -1331 
Q 1025 -1281 716 -1178 
L 716 -306 
Q 1009 -475 1290 -558 
Q 1572 -641 1856 -641 
Q 2406 -641 2662 -400 
Q 2919 -159 2919 353 
L 2919 594 
z
M 2181 2772 
Q 1834 2772 1640 2515 
Q 1447 2259 1447 1791 
Q 1447 1309 1634 1061 
Q 1822 813 2181 813 
Q 2531 813 2725 1069 
Q 2919 1325 2919 1791 
Q 2919 2259 2725 2515 
Q 2531 2772 2181 2772 
z
" transform="scale(0.015625)"/>
      </defs>
      <use xlink:href="#DejaVuSans-Bold-52"/>
      <use xlink:href="#DejaVuSans-Bold-61" x="77.001953"/>
      <use xlink:href="#DejaVuSans-Bold-74" x="144.482422"/>
      <use xlink:href="#DejaVuSans-Bold-69" x="192.285156"/>
      <use xlink:href="#DejaVuSans-Bold-6e" x="226.5625"/>
      <use xlink:href="#DejaVuSans-Bold-67" x="297.753906"/>
     </g>
    </g>
   </g>
   <g id="LineCollection_1">
    <path d="M 79.495307 172.977234 
L 90.820465 172.977234 
" clip-path="url(#p6dbf814326)" style="fill: none; stroke: #1f77b4; stroke-width: 1.5"/>
    <path d="M 154.996364 207.094148 
L 166.321522 207.094148 
" clip-path="url(#p6dbf814326)" style="fill: none; stroke: #1f77b4; stroke-width: 1.5"/>
    <path d="M 230.497421 180.89432 
L 241.822579 180.89432 
" clip-path="url(#p6dbf814326)" style="fill: none; stroke: #1f77b4; stroke-width: 1.5"/>
    <path d="M 305.998478 210.489074 
L 317.323636 210.489074 
" clip-path="url(#p6dbf814326)" style="fill: none; stroke: #1f77b4; stroke-width: 1.5"/>
    <path d="M 381.499535 213.297225 
L 392.824693 213.297225 
" clip-path="url(#p6dbf814326)" style="fill: none; stroke: #1f77b4; stroke-width: 1.5"/>
   </g>
   <g id="LineCollection_2">
    <path d="M 79.495307 53.568 
L 90.820465 53.568 
" clip-path="url(#p6dbf814326)" style="fill: none; stroke: #1f77b4; stroke-width: 1.5"/>
    <path d="M 154.996364 53.568 
L 166.321522 53.568 
" clip-path="url(#p6dbf814326)" style="fill: none; stroke: #1f77b4; stroke-width: 1.5"/>
    <path d="M 230.497421 53.568 
L 241.822579 53.568 
" clip-path="url(#p6dbf814326)" style="fill: none; stroke: #1f77b4; stroke-width: 1.5"/>
    <path d="M 305.998478 53.568 
L 317.323636 53.568 
" clip-path="url(#p6dbf814326)" style="fill: none; stroke: #1f77b4; stroke-width: 1.5"/>
    <path d="M 381.499535 53.568 
L 392.824693 53.568 
" clip-path="url(#p6dbf814326)" style="fill: none; stroke: #1f77b4; stroke-width: 1.5"/>
   </g>
   <g id="LineCollection_3">
    <path d="M 79.495307 295.488 
L 90.820465 295.488 
" clip-path="url(#p6dbf814326)" style="fill: none; stroke: #1f77b4; stroke-width: 1.5"/>
    <path d="M 154.996364 295.488 
L 166.321522 295.488 
" clip-path="url(#p6dbf814326)" style="fill: none; stroke: #1f77b4; stroke-width: 1.5"/>
    <path d="M 230.497421 295.488 
L 241.822579 295.488 
" clip-path="url(#p6dbf814326)" style="fill: none; stroke: #1f77b4; stroke-width: 1.5"/>
    <path d="M 305.998478 295.488 
L 317.323636 295.488 
" clip-path="url(#p6dbf814326)" style="fill: none; stroke: #1f77b4; stroke-width: 1.5"/>
    <path d="M 381.499535 295.488 
L 392.824693 295.488 
" clip-path="url(#p6dbf814326)" style="fill: none; stroke: #1f77b4; stroke-width: 1.5"/>
   </g>
   <g id="LineCollection_4">
    <path d="M 85.157886 295.488 
L 85.157886 53.568 
" clip-path="url(#p6dbf814326)" style="fill: none; stroke: #1f77b4; stroke-width: 1.5"/>
    <path d="M 160.658943 295.488 
L 160.658943 53.568 
" clip-path="url(#p6dbf814326)" style="fill: none; stroke: #1f77b4; stroke-width: 1.5"/>
    <path d="M 236.16 295.488 
L 236.16 53.568 
" clip-path="url(#p6dbf814326)" style="fill: none; stroke: #1f77b4; stroke-width: 1.5"/>
    <path d="M 311.661057 295.488 
L 311.661057 53.568 
" clip-path="url(#p6dbf814326)" style="fill: none; stroke: #1f77b4; stroke-width: 1.5"/>
    <path d="M 387.162114 295.488 
L 387.162114 53.568 
" clip-path="url(#p6dbf814326)" style="fill: none; stroke: #1f77b4; stroke-width: 1.5"/>
   </g>
   <g id="LineCollection_5">
    <path d="M 79.495307 174.528 
L 90.820465 174.528 
" clip-path="url(#p6dbf814326)" style="fill: none; stroke: #1f77b4; stroke-width: 1.5"/>
    <path d="M 154.996364 235.008 
L 166.321522 235.008 
" clip-path="url(#p6dbf814326)" style="fill: none; stroke: #1f77b4; stroke-width: 1.5"/>
    <path d="M 230.497421 174.528 
L 241.822579 174.528 
" clip-path="url(#p6dbf814326)" style="fill: none; stroke: #1f77b4; stroke-width: 1.5"/>
    <path d="M 305.998478 235.008 
L 317.323636 235.008 
" clip-path="url(#p6dbf814326)" style="fill: none; stroke: #1f77b4; stroke-width: 1.5"/>
    <path d="M 381.499535 235.008 
L 392.824693 235.008 
" clip-path="url(#p6dbf814326)" style="fill: none; stroke: #1f77b4; stroke-width: 1.5"/>
   </g>
   <g id="patch_3">
    <path d="M 57.6 307.584 
L 57.6 41.472 
" style="fill: none; stroke: #000000; stroke-width: 0.8; stroke-linejoin: miter; stroke-linecap: square"/>
   </g>
   <g id="patch_4">
    <path d="M 414.72 307.584 
L 414.72 41.472 
" style="fill: none; stroke: #000000; stroke-width: 0.8; stroke-linejoin: miter; stroke-linecap: square"/>
   </g>
   <g id="patch_5">
    <path d="M 57.6 307.584 
L 414.72 307.584 
" style="fill: none; stroke: #000000; stroke-width: 0.8; stroke-linejoin: miter; stroke-linecap: square"/>
   </g>
   <g id="patch_6">
    <path d="M 57.6 41.472 
L 414.72 41.472 
" style="fill: none; stroke: #000000; stroke-width: 0.8; stroke-linejoin: miter; stroke-linecap: square"/>
   </g>
  </g>
 </g>
 <defs>
  <clipPath id="p6dbf814326">
   <rect x="57.6" y="41.472" width="357.12" height="266.112"/>
  </clipPath>
 </defs>
</svg>
