<?xml version="1.0" encoding="utf-8" standalone="no"?>
<!DOCTYPE svg PUBLIC "-//W3C//DTD SVG 1.1//EN"
  "http://www.w3.org/Graphics/SVG/1.1/DTD/svg11.dtd">
<svg xmlns:xlink="http://www.w3.org/1999/xlink" width="460.8pt" height="345.6pt" viewBox="0 0 460.8 345.6" xmlns="http://www.w3.org/2000/svg" version="1.1">
 <metadata>
  <rdf:RDF xmlns:dc="http://purl.org/dc/elements/1.1/" xmlns:cc="http://creativecommons.org/ns#" xmlns:rdf="http://www.w3.org/1999/02/22-rdf-syntax-ns#">
   <cc:Work>
    <dc:type rdf:resource="http://purl.org/dc/dcmitype/StillImage"/>
    <dc:date>2022-03-02T20:54:23.300893</dc:date>
    <dc:format>image/svg+xml</dc:format>
    <dc:creator>
     <cc:Agent>
      <dc:title>Matplotlib v3.5.1, https://matplotlib.org/</dc:title>
     </cc:Agent>
    </dc:creator>
   </cc:Work>
  </rdf:RDF>
 </metadata>
 <defs>
  <style type="text/css">*{stroke-linejoin: round; stroke-linecap: butt}</style>
 </defs>
 <g id="figure_1">
  <g id="patch_1">
   <path d="M 0 345.6 
L 460.8 345.6 
L 460.8 0 
L 0 0 
z
" style="fill: #ffffff"/>
  </g>
  <g id="axes_1">
   <g id="patch_2">
    <path d="M 57.6 307.584 
L 414.72 307.584 
L 414.72 41.472 
L 57.6 41.472 
z
" style="fill: #ffffff"/>
   </g>
   <g id="PolyCollection_1">
    <path d="M 90.338402 295.488 
L 79.97737 295.488 
L 79.852633 293.044364 
L 79.73442 290.600727 
L 79.622457 288.157091 
L 79.516358 285.713455 
L 79.415634 283.269818 
L 79.319704 280.826182 
L 79.227907 278.382545 
L 79.139517 275.938909 
L 79.053753 273.495273 
L 78.969796 271.051636 
L 78.886802 268.608 
L 78.803916 266.164364 
L 78.720284 263.720727 
L 78.635069 261.277091 
L 78.547459 258.833455 
L 78.456677 256.389818 
L 78.361998 253.946182 
L 78.262753 251.502545 
L 78.158337 249.058909 
L 78.048224 246.615273 
L 77.931968 244.171636 
L 77.809217 241.728 
L 77.679716 239.284364 
L 77.543318 236.840727 
L 77.399989 234.397091 
L 77.249816 231.953455 
L 77.093012 229.509818 
L 76.929924 227.066182 
L 76.761031 224.622545 
L 76.586953 222.178909 
L 76.408447 219.735273 
L 76.226405 217.291636 
L 76.041853 214.848 
L 75.855939 212.404364 
L 75.669925 209.960727 
L 75.48517 207.517091 
L 75.303117 205.073455 
L 75.125269 202.629818 
L 74.953168 200.186182 
L 74.788367 197.742545 
L 74.632406 195.298909 
L 74.486783 192.855273 
L 74.352924 190.411636 
L 74.232155 187.968 
L 74.125677 185.524364 
L 74.034539 183.080727 
L 73.959619 180.637091 
L 73.901602 178.193455 
L 73.860971 175.749818 
L 73.837996 173.306182 
L 73.832727 170.862545 
L 73.845002 168.418909 
L 73.874446 165.975273 
L 73.920488 163.531636 
L 73.982372 161.088 
L 74.059181 158.644364 
L 74.149856 156.200727 
L 74.253224 153.757091 
L 74.368022 151.313455 
L 74.492929 148.869818 
L 74.626588 146.426182 
L 74.767635 143.982545 
L 74.914726 141.538909 
L 75.066556 139.095273 
L 75.22188 136.651636 
L 75.37953 134.208 
L 75.538429 131.764364 
L 75.697602 129.320727 
L 75.856178 126.877091 
L 76.0134 124.433455 
L 76.168624 121.989818 
L 76.321317 119.546182 
L 76.471054 117.102545 
L 76.617517 114.658909 
L 76.760484 112.215273 
L 76.899828 109.771636 
L 77.03551 107.328 
L 77.167569 104.884364 
L 77.296123 102.440727 
L 77.421356 99.997091 
L 77.54352 97.553455 
L 77.662925 95.109818 
L 77.779935 92.666182 
L 77.894966 90.222545 
L 78.008479 87.778909 
L 78.120975 85.335273 
L 78.232988 82.891636 
L 78.345081 80.448 
L 78.457835 78.004364 
L 78.571843 75.560727 
L 78.687699 73.117091 
L 78.805985 70.673455 
L 78.927265 68.229818 
L 79.052068 65.786182 
L 79.180877 63.342545 
L 79.314121 60.898909 
L 79.452157 58.455273 
L 79.595263 56.011636 
L 79.743628 53.568 
L 90.572144 53.568 
L 90.572144 53.568 
L 90.720509 56.011636 
L 90.863615 58.455273 
L 91.00165 60.898909 
L 91.134894 63.342545 
L 91.263704 65.786182 
L 91.388507 68.229818 
L 91.509787 70.673455 
L 91.628073 73.117091 
L 91.743928 75.560727 
L 91.857937 78.004364 
L 91.970691 80.448 
L 92.082784 82.891636 
L 92.194797 85.335273 
L 92.307292 87.778909 
L 92.420805 90.222545 
L 92.535836 92.666182 
L 92.652847 95.109818 
L 92.772251 97.553455 
L 92.894415 99.997091 
L 93.019649 102.440727 
L 93.148203 104.884364 
L 93.280262 107.328 
L 93.415943 109.771636 
L 93.555288 112.215273 
L 93.698255 114.658909 
L 93.844717 117.102545 
L 93.994455 119.546182 
L 94.147148 121.989818 
L 94.302372 124.433455 
L 94.459594 126.877091 
L 94.61817 129.320727 
L 94.777342 131.764364 
L 94.936242 134.208 
L 95.093892 136.651636 
L 95.249216 139.095273 
L 95.401045 141.538909 
L 95.548136 143.982545 
L 95.689184 146.426182 
L 95.822843 148.869818 
L 95.947749 151.313455 
L 96.062548 153.757091 
L 96.165916 156.200727 
L 96.256591 158.644364 
L 96.3334 161.088 
L 96.395284 163.531636 
L 96.441325 165.975273 
L 96.47077 168.418909 
L 96.483044 170.862545 
L 96.477776 173.306182 
L 96.454801 175.749818 
L 96.41417 178.193455 
L 96.356153 180.637091 
L 96.281232 183.080727 
L 96.190095 185.524364 
L 96.083616 187.968 
L 95.962848 190.411636 
L 95.828988 192.855273 
L 95.683366 195.298909 
L 95.527405 197.742545 
L 95.362604 200.186182 
L 95.190502 202.629818 
L 95.012654 205.073455 
L 94.830601 207.517091 
L 94.645847 209.960727 
L 94.459832 212.404364 
L 94.273918 214.848 
L 94.089366 217.291636 
L 93.907325 219.735273 
L 93.728818 222.178909 
L 93.55474 224.622545 
L 93.385848 227.066182 
L 93.222759 229.509818 
L 93.065956 231.953455 
L 92.915783 234.397091 
L 92.772454 236.840727 
L 92.636056 239.284364 
L 92.506555 241.728 
L 92.383804 244.171636 
L 92.267548 246.615273 
L 92.157434 249.058909 
L 92.053019 251.502545 
L 91.953773 253.946182 
L 91.859094 256.389818 
L 91.768313 258.833455 
L 91.680702 261.277091 
L 91.595487 263.720727 
L 91.511856 266.164364 
L 91.42897 268.608 
L 91.345976 271.051636 
L 91.262019 273.495273 
L 91.176255 275.938909 
L 91.087865 278.382545 
L 90.996068 280.826182 
L 90.900138 283.269818 
L 90.799414 285.713455 
L 90.693314 288.157091 
L 90.581351 290.600727 
L 90.463138 293.044364 
L 90.338402 295.488 
z
" clip-path="url(#pac428754ae)" style="fill: #1f77b4; fill-opacity: 0.3"/>
   </g>
   <g id="PolyCollection_2">
    <path d="M 170.585905 295.488 
L 150.731981 295.488 
L 150.528171 293.044364 
L 150.341401 290.600727 
L 150.171742 288.157091 
L 150.019112 285.713455 
L 149.883285 283.269818 
L 149.763912 280.826182 
L 149.660538 278.382545 
L 149.572623 275.938909 
L 149.499564 273.495273 
L 149.440711 271.051636 
L 149.395387 268.608 
L 149.362909 266.164364 
L 149.342595 263.720727 
L 149.333784 261.277091 
L 149.335841 258.833455 
L 149.348163 256.389818 
L 149.370188 253.946182 
L 149.401389 251.502545 
L 149.441278 249.058909 
L 149.489403 246.615273 
L 149.545339 244.171636 
L 149.608686 241.728 
L 149.679061 239.284364 
L 149.75609 236.840727 
L 149.839406 234.397091 
L 149.928638 231.953455 
L 150.02341 229.509818 
L 150.123336 227.066182 
L 150.228022 224.622545 
L 150.337059 222.178909 
L 150.450031 219.735273 
L 150.566512 217.291636 
L 150.686076 214.848 
L 150.808295 212.404364 
L 150.932748 209.960727 
L 151.059026 207.517091 
L 151.186736 205.073455 
L 151.315507 202.629818 
L 151.444993 200.186182 
L 151.574879 197.742545 
L 151.70488 195.298909 
L 151.834743 192.855273 
L 151.964249 190.411636 
L 152.093208 187.968 
L 152.221462 185.524364 
L 152.348876 183.080727 
L 152.475341 180.637091 
L 152.600762 178.193455 
L 152.725063 175.749818 
L 152.848173 173.306182 
L 152.970033 170.862545 
L 153.090581 168.418909 
L 153.20976 165.975273 
L 153.32751 163.531636 
L 153.443768 161.088 
L 153.55847 158.644364 
L 153.671547 156.200727 
L 153.782932 153.757091 
L 153.892557 151.313455 
L 154.000359 148.869818 
L 154.106278 146.426182 
L 154.210264 143.982545 
L 154.312277 141.538909 
L 154.412288 139.095273 
L 154.510283 136.651636 
L 154.606264 134.208 
L 154.700248 131.764364 
L 154.792268 129.320727 
L 154.882374 126.877091 
L 154.97063 124.433455 
L 155.057117 121.989818 
L 155.141924 119.546182 
L 155.225156 117.102545 
L 155.306926 114.658909 
L 155.387355 112.215273 
L 155.466573 109.771636 
L 155.544715 107.328 
L 155.621922 104.884364 
L 155.698342 102.440727 
L 155.774128 99.997091 
L 155.849437 97.553455 
L 155.924435 95.109818 
L 155.999292 92.666182 
L 156.074187 90.222545 
L 156.149303 87.778909 
L 156.224834 85.335273 
L 156.300977 82.891636 
L 156.377934 80.448 
L 156.455913 78.004364 
L 156.535121 75.560727 
L 156.615762 73.117091 
L 156.698037 70.673455 
L 156.782134 68.229818 
L 156.86823 65.786182 
L 156.95648 63.342545 
L 157.047017 60.898909 
L 157.139943 58.455273 
L 157.235326 56.011636 
L 157.3332 53.568 
L 163.984686 53.568 
L 163.984686 53.568 
L 164.082559 56.011636 
L 164.177943 58.455273 
L 164.270869 60.898909 
L 164.361406 63.342545 
L 164.449656 65.786182 
L 164.535752 68.229818 
L 164.619849 70.673455 
L 164.702124 73.117091 
L 164.782765 75.560727 
L 164.861972 78.004364 
L 164.939951 80.448 
L 165.016909 82.891636 
L 165.093052 85.335273 
L 165.168582 87.778909 
L 165.243699 90.222545 
L 165.318594 92.666182 
L 165.393451 95.109818 
L 165.468448 97.553455 
L 165.543758 99.997091 
L 165.619543 102.440727 
L 165.695964 104.884364 
L 165.773171 107.328 
L 165.851313 109.771636 
L 165.93053 112.215273 
L 166.01096 114.658909 
L 166.092729 117.102545 
L 166.175962 119.546182 
L 166.260769 121.989818 
L 166.347255 124.433455 
L 166.435512 126.877091 
L 166.525618 129.320727 
L 166.617638 131.764364 
L 166.711622 134.208 
L 166.807603 136.651636 
L 166.905598 139.095273 
L 167.005609 141.538909 
L 167.107622 143.982545 
L 167.211608 146.426182 
L 167.317527 148.869818 
L 167.425329 151.313455 
L 167.534954 153.757091 
L 167.646339 156.200727 
L 167.759416 158.644364 
L 167.874117 161.088 
L 167.990376 163.531636 
L 168.108126 165.975273 
L 168.227305 168.418909 
L 168.347853 170.862545 
L 168.469712 173.306182 
L 168.592823 175.749818 
L 168.717123 178.193455 
L 168.842545 180.637091 
L 168.969009 183.080727 
L 169.096424 185.524364 
L 169.224678 187.968 
L 169.353637 190.411636 
L 169.483143 192.855273 
L 169.613006 195.298909 
L 169.743006 197.742545 
L 169.872892 200.186182 
L 170.002379 202.629818 
L 170.13115 205.073455 
L 170.25886 207.517091 
L 170.385138 209.960727 
L 170.509591 212.404364 
L 170.63181 214.848 
L 170.751373 217.291636 
L 170.867855 219.735273 
L 170.980827 222.178909 
L 171.089864 224.622545 
L 171.194549 227.066182 
L 171.294476 229.509818 
L 171.389248 231.953455 
L 171.47848 234.397091 
L 171.561796 236.840727 
L 171.638825 239.284364 
L 171.7092 241.728 
L 171.772547 244.171636 
L 171.828483 246.615273 
L 171.876608 249.058909 
L 171.916497 251.502545 
L 171.947698 253.946182 
L 171.969722 256.389818 
L 171.982045 258.833455 
L 171.984101 261.277091 
L 171.975291 263.720727 
L 171.954977 266.164364 
L 171.922499 268.608 
L 171.877175 271.051636 
L 171.818322 273.495273 
L 171.745262 275.938909 
L 171.657348 278.382545 
L 171.553974 280.826182 
L 171.434601 283.269818 
L 171.298774 285.713455 
L 171.146144 288.157091 
L 170.976485 290.600727 
L 170.789715 293.044364 
L 170.585905 295.488 
z
" clip-path="url(#pac428754ae)" style="fill: #1f77b4; fill-opacity: 0.3"/>
   </g>
   <g id="PolyCollection_3">
    <path d="M 245.701441 295.488 
L 226.618559 295.488 
L 226.424056 293.044364 
L 226.241954 290.600727 
L 226.072397 288.157091 
L 225.915423 285.713455 
L 225.770969 283.269818 
L 225.638874 280.826182 
L 225.518889 278.382545 
L 225.410686 275.938909 
L 225.313862 273.495273 
L 225.227954 271.051636 
L 225.152445 268.608 
L 225.086775 266.164364 
L 225.030349 263.720727 
L 224.982549 261.277091 
L 224.942741 258.833455 
L 224.910284 256.389818 
L 224.884536 253.946182 
L 224.864865 251.502545 
L 224.850649 249.058909 
L 224.841288 246.615273 
L 224.836202 244.171636 
L 224.834841 241.728 
L 224.836684 239.284364 
L 224.841239 236.840727 
L 224.848054 234.397091 
L 224.856706 231.953455 
L 224.866812 229.509818 
L 224.878022 227.066182 
L 224.890022 224.622545 
L 224.902533 222.178909 
L 224.91531 219.735273 
L 224.928141 217.291636 
L 224.940844 214.848 
L 224.953267 212.404364 
L 224.965286 209.960727 
L 224.976804 207.517091 
L 224.987746 205.073455 
L 224.998061 202.629818 
L 225.007716 200.186182 
L 225.016696 197.742545 
L 225.025001 195.298909 
L 225.032642 192.855273 
L 225.039645 190.411636 
L 225.04604 187.968 
L 225.051867 185.524364 
L 225.057167 183.080727 
L 225.061989 180.637091 
L 225.06638 178.193455 
L 225.07039 175.749818 
L 225.074069 173.306182 
L 225.077465 170.862545 
L 225.080627 168.418909 
L 225.083605 165.975273 
L 225.086445 163.531636 
L 225.089198 161.088 
L 225.091916 158.644364 
L 225.094651 156.200727 
L 225.097462 153.757091 
L 225.100414 151.313455 
L 225.103575 148.869818 
L 225.107026 146.426182 
L 225.110855 143.982545 
L 225.115161 141.538909 
L 225.120056 139.095273 
L 225.125665 136.651636 
L 225.132129 134.208 
L 225.139602 131.764364 
L 225.148256 129.320727 
L 225.158279 126.877091 
L 225.169877 124.433455 
L 225.183274 121.989818 
L 225.198711 119.546182 
L 225.216449 117.102545 
L 225.236765 114.658909 
L 225.259959 112.215273 
L 225.286344 109.771636 
L 225.316253 107.328 
L 225.350037 104.884364 
L 225.388061 102.440727 
L 225.430705 99.997091 
L 225.478363 97.553455 
L 225.531438 95.109818 
L 225.590342 92.666182 
L 225.65549 90.222545 
L 225.7273 87.778909 
L 225.806183 85.335273 
L 225.892545 82.891636 
L 225.986775 80.448 
L 226.089242 78.004364 
L 226.200291 75.560727 
L 226.32023 73.117091 
L 226.449329 70.673455 
L 226.587811 68.229818 
L 226.735845 65.786182 
L 226.893539 63.342545 
L 227.060935 60.898909 
L 227.238005 58.455273 
L 227.424642 56.011636 
L 227.620661 53.568 
L 244.699339 53.568 
L 244.699339 53.568 
L 244.895358 56.011636 
L 245.081995 58.455273 
L 245.259065 60.898909 
L 245.426461 63.342545 
L 245.584155 65.786182 
L 245.732189 68.229818 
L 245.870671 70.673455 
L 245.99977 73.117091 
L 246.119709 75.560727 
L 246.230758 78.004364 
L 246.333225 80.448 
L 246.427455 82.891636 
L 246.513817 85.335273 
L 246.5927 87.778909 
L 246.66451 90.222545 
L 246.729658 92.666182 
L 246.788562 95.109818 
L 246.841637 97.553455 
L 246.889295 99.997091 
L 246.931939 102.440727 
L 246.969963 104.884364 
L 247.003747 107.328 
L 247.033656 109.771636 
L 247.060041 112.215273 
L 247.083235 114.658909 
L 247.103551 117.102545 
L 247.121289 119.546182 
L 247.136726 121.989818 
L 247.150123 124.433455 
L 247.161721 126.877091 
L 247.171744 129.320727 
L 247.180398 131.764364 
L 247.187871 134.208 
L 247.194335 136.651636 
L 247.199944 139.095273 
L 247.204839 141.538909 
L 247.209145 143.982545 
L 247.212974 146.426182 
L 247.216425 148.869818 
L 247.219586 151.313455 
L 247.222538 153.757091 
L 247.225349 156.200727 
L 247.228084 158.644364 
L 247.230802 161.088 
L 247.233555 163.531636 
L 247.236395 165.975273 
L 247.239373 168.418909 
L 247.242535 170.862545 
L 247.245931 173.306182 
L 247.24961 175.749818 
L 247.25362 178.193455 
L 247.258011 180.637091 
L 247.262833 183.080727 
L 247.268133 185.524364 
L 247.27396 187.968 
L 247.280355 190.411636 
L 247.287358 192.855273 
L 247.294999 195.298909 
L 247.303304 197.742545 
L 247.312284 200.186182 
L 247.321939 202.629818 
L 247.332254 205.073455 
L 247.343196 207.517091 
L 247.354714 209.960727 
L 247.366733 212.404364 
L 247.379156 214.848 
L 247.391859 217.291636 
L 247.40469 219.735273 
L 247.417467 222.178909 
L 247.429978 224.622545 
L 247.441978 227.066182 
L 247.453188 229.509818 
L 247.463294 231.953455 
L 247.471946 234.397091 
L 247.478761 236.840727 
L 247.483316 239.284364 
L 247.485159 241.728 
L 247.483798 244.171636 
L 247.478712 246.615273 
L 247.469351 249.058909 
L 247.455135 251.502545 
L 247.435464 253.946182 
L 247.409716 256.389818 
L 247.377259 258.833455 
L 247.337451 261.277091 
L 247.289651 263.720727 
L 247.233225 266.164364 
L 247.167555 268.608 
L 247.092046 271.051636 
L 247.006138 273.495273 
L 246.909314 275.938909 
L 246.801111 278.382545 
L 246.681126 280.826182 
L 246.549031 283.269818 
L 246.404577 285.713455 
L 246.247603 288.157091 
L 246.078046 290.600727 
L 245.895944 293.044364 
L 245.701441 295.488 
z
" clip-path="url(#pac428754ae)" style="fill: #1f77b4; fill-opacity: 0.3"/>
   </g>
   <g id="PolyCollection_4">
    <path d="M 318.034395 295.488 
L 305.287719 295.488 
L 305.106395 293.044364 
L 304.934177 290.600727 
L 304.76989 288.157091 
L 304.61217 285.713455 
L 304.459535 283.269818 
L 304.310467 280.826182 
L 304.163492 278.382545 
L 304.017261 275.938909 
L 303.870621 273.495273 
L 303.722677 271.051636 
L 303.572839 268.608 
L 303.420851 266.164364 
L 303.266804 263.720727 
L 303.111123 261.277091 
L 302.954539 258.833455 
L 302.798043 256.389818 
L 302.64282 253.946182 
L 302.490177 251.502545 
L 302.341455 249.058909 
L 302.197947 246.615273 
L 302.060818 244.171636 
L 301.931021 241.728 
L 301.809244 239.284364 
L 301.695861 236.840727 
L 301.590905 234.397091 
L 301.494071 231.953455 
L 301.40473 229.509818 
L 301.32198 227.066182 
L 301.244703 224.622545 
L 301.17165 222.178909 
L 301.101532 219.735273 
L 301.033126 217.291636 
L 300.965373 214.848 
L 300.897476 212.404364 
L 300.828992 209.960727 
L 300.759898 207.517091 
L 300.690643 205.073455 
L 300.622173 202.629818 
L 300.55593 200.186182 
L 300.493824 197.742545 
L 300.438173 195.298909 
L 300.39163 192.855273 
L 300.357075 190.411636 
L 300.337504 187.968 
L 300.335899 185.524364 
L 300.355097 183.080727 
L 300.397668 180.637091 
L 300.465791 178.193455 
L 300.561156 175.749818 
L 300.684878 173.306182 
L 300.837444 170.862545 
L 301.018675 168.418909 
L 301.227728 165.975273 
L 301.463122 163.531636 
L 301.722784 161.088 
L 302.004123 158.644364 
L 302.304128 156.200727 
L 302.619469 153.757091 
L 302.946616 151.313455 
L 303.281956 148.869818 
L 303.621907 146.426182 
L 303.963029 143.982545 
L 304.302119 141.538909 
L 304.636288 139.095273 
L 304.963027 136.651636 
L 305.280246 134.208 
L 305.586295 131.764364 
L 305.879965 129.320727 
L 306.160474 126.877091 
L 306.427432 124.433455 
L 306.680798 121.989818 
L 306.920823 119.546182 
L 307.147993 117.102545 
L 307.362968 114.658909 
L 307.566517 112.215273 
L 307.759467 109.771636 
L 307.942647 107.328 
L 308.116855 104.884364 
L 308.28282 102.440727 
L 308.44118 99.997091 
L 308.592477 97.553455 
L 308.737146 95.109818 
L 308.875528 92.666182 
L 309.007878 90.222545 
L 309.13438 87.778909 
L 309.255172 85.335273 
L 309.370363 82.891636 
L 309.480055 80.448 
L 309.584361 78.004364 
L 309.683418 75.560727 
L 309.777403 73.117091 
L 309.866535 70.673455 
L 309.951081 68.229818 
L 310.031349 65.786182 
L 310.107689 63.342545 
L 310.180478 60.898909 
L 310.25011 58.455273 
L 310.316982 56.011636 
L 310.381483 53.568 
L 312.940631 53.568 
L 312.940631 53.568 
L 313.005132 56.011636 
L 313.072005 58.455273 
L 313.141636 60.898909 
L 313.214425 63.342545 
L 313.290765 65.786182 
L 313.371034 68.229818 
L 313.455579 70.673455 
L 313.544711 73.117091 
L 313.638696 75.560727 
L 313.737753 78.004364 
L 313.842059 80.448 
L 313.951751 82.891636 
L 314.066942 85.335273 
L 314.187735 87.778909 
L 314.314237 90.222545 
L 314.446586 92.666182 
L 314.584968 95.109818 
L 314.729638 97.553455 
L 314.880934 99.997091 
L 315.039295 102.440727 
L 315.205259 104.884364 
L 315.379467 107.328 
L 315.562648 109.771636 
L 315.755597 112.215273 
L 315.959146 114.658909 
L 316.174121 117.102545 
L 316.401292 119.546182 
L 316.641317 121.989818 
L 316.894682 124.433455 
L 317.16164 126.877091 
L 317.442149 129.320727 
L 317.735819 131.764364 
L 318.041868 134.208 
L 318.359087 136.651636 
L 318.685826 139.095273 
L 319.019996 141.538909 
L 319.359085 143.982545 
L 319.700207 146.426182 
L 320.040158 148.869818 
L 320.375498 151.313455 
L 320.702645 153.757091 
L 321.017987 156.200727 
L 321.317991 158.644364 
L 321.599331 161.088 
L 321.858992 163.531636 
L 322.094386 165.975273 
L 322.30344 168.418909 
L 322.484671 170.862545 
L 322.637236 173.306182 
L 322.760958 175.749818 
L 322.856323 178.193455 
L 322.924447 180.637091 
L 322.967017 183.080727 
L 322.986216 185.524364 
L 322.98461 187.968 
L 322.965039 190.411636 
L 322.930484 192.855273 
L 322.883941 195.298909 
L 322.82829 197.742545 
L 322.766184 200.186182 
L 322.699941 202.629818 
L 322.631471 205.073455 
L 322.562216 207.517091 
L 322.493122 209.960727 
L 322.424638 212.404364 
L 322.356741 214.848 
L 322.288988 217.291636 
L 322.220582 219.735273 
L 322.150465 222.178909 
L 322.077411 224.622545 
L 322.000134 227.066182 
L 321.917384 229.509818 
L 321.828043 231.953455 
L 321.731209 234.397091 
L 321.626253 236.840727 
L 321.51287 239.284364 
L 321.391093 241.728 
L 321.261297 244.171636 
L 321.124167 246.615273 
L 320.98066 249.058909 
L 320.831937 251.502545 
L 320.679294 253.946182 
L 320.524071 256.389818 
L 320.367575 258.833455 
L 320.210991 261.277091 
L 320.05531 263.720727 
L 319.901263 266.164364 
L 319.749275 268.608 
L 319.599437 271.051636 
L 319.451493 273.495273 
L 319.304853 275.938909 
L 319.158622 278.382545 
L 319.011647 280.826182 
L 318.862579 283.269818 
L 318.709944 285.713455 
L 318.552224 288.157091 
L 318.387937 290.600727 
L 318.215719 293.044364 
L 318.034395 295.488 
z
" clip-path="url(#pac428754ae)" style="fill: #1f77b4; fill-opacity: 0.3"/>
   </g>
   <g id="PolyCollection_5">
    <path d="M 397.642177 295.488 
L 376.682051 295.488 
L 376.507191 293.044364 
L 376.353605 290.600727 
L 376.221186 288.157091 
L 376.109609 285.713455 
L 376.018346 283.269818 
L 375.94669 280.826182 
L 375.893777 278.382545 
L 375.858604 275.938909 
L 375.840061 273.495273 
L 375.836956 271.051636 
L 375.848034 268.608 
L 375.872011 266.164364 
L 375.907589 263.720727 
L 375.953479 261.277091 
L 376.008421 258.833455 
L 376.071197 256.389818 
L 376.140641 253.946182 
L 376.215655 251.502545 
L 376.295209 249.058909 
L 376.378348 246.615273 
L 376.46419 244.171636 
L 376.551932 241.728 
L 376.640839 239.284364 
L 376.730247 236.840727 
L 376.819556 234.397091 
L 376.908225 231.953455 
L 376.995767 229.509818 
L 377.081745 227.066182 
L 377.165768 224.622545 
L 377.247484 222.178909 
L 377.326581 219.735273 
L 377.402782 217.291636 
L 377.475844 214.848 
L 377.545558 212.404364 
L 377.611743 209.960727 
L 377.674255 207.517091 
L 377.732977 205.073455 
L 377.787825 202.629818 
L 377.838746 200.186182 
L 377.88572 197.742545 
L 377.928754 195.298909 
L 377.967888 192.855273 
L 378.003193 190.411636 
L 378.034766 187.968 
L 378.062735 185.524364 
L 378.087256 183.080727 
L 378.108512 180.637091 
L 378.126713 178.193455 
L 378.1421 175.749818 
L 378.15494 173.306182 
L 378.165531 170.862545 
L 378.174201 168.418909 
L 378.181311 165.975273 
L 378.187258 163.531636 
L 378.192472 161.088 
L 378.197422 158.644364 
L 378.202615 156.200727 
L 378.208594 153.757091 
L 378.21594 151.313455 
L 378.225269 148.869818 
L 378.237228 146.426182 
L 378.25249 143.982545 
L 378.271747 141.538909 
L 378.295703 139.095273 
L 378.325063 136.651636 
L 378.360526 134.208 
L 378.402767 131.764364 
L 378.452429 129.320727 
L 378.510112 126.877091 
L 378.576353 124.433455 
L 378.65162 121.989818 
L 378.736298 119.546182 
L 378.830681 117.102545 
L 378.934959 114.658909 
L 379.049216 112.215273 
L 379.173424 109.771636 
L 379.307441 107.328 
L 379.451013 104.884364 
L 379.603776 102.440727 
L 379.765264 99.997091 
L 379.934914 97.553455 
L 380.112082 95.109818 
L 380.296047 92.666182 
L 380.486031 90.222545 
L 380.681213 87.778909 
L 380.88074 85.335273 
L 381.083745 82.891636 
L 381.289359 80.448 
L 381.496729 78.004364 
L 381.705025 75.560727 
L 381.913457 73.117091 
L 382.121278 70.673455 
L 382.327798 68.229818 
L 382.532382 65.786182 
L 382.734463 63.342545 
L 382.933534 60.898909 
L 383.129155 58.455273 
L 383.320946 56.011636 
L 383.50859 53.568 
L 390.815638 53.568 
L 390.815638 53.568 
L 391.003282 56.011636 
L 391.195074 58.455273 
L 391.390694 60.898909 
L 391.589765 63.342545 
L 391.791846 65.786182 
L 391.996431 68.229818 
L 392.20295 70.673455 
L 392.410771 73.117091 
L 392.619203 75.560727 
L 392.8275 78.004364 
L 393.034869 80.448 
L 393.240484 82.891636 
L 393.443488 85.335273 
L 393.643015 87.778909 
L 393.838197 90.222545 
L 394.028182 92.666182 
L 394.212147 95.109818 
L 394.389314 97.553455 
L 394.558965 99.997091 
L 394.720452 102.440727 
L 394.873216 104.884364 
L 395.016788 107.328 
L 395.150805 109.771636 
L 395.275013 112.215273 
L 395.38927 114.658909 
L 395.493548 117.102545 
L 395.58793 119.546182 
L 395.672609 121.989818 
L 395.747876 124.433455 
L 395.814117 126.877091 
L 395.871799 129.320727 
L 395.921462 131.764364 
L 395.963703 134.208 
L 395.999165 136.651636 
L 396.028526 139.095273 
L 396.052481 141.538909 
L 396.071738 143.982545 
L 396.087 146.426182 
L 396.098959 148.869818 
L 396.108288 151.313455 
L 396.115635 153.757091 
L 396.121614 156.200727 
L 396.126806 158.644364 
L 396.131756 161.088 
L 396.13697 163.531636 
L 396.142917 165.975273 
L 396.150027 168.418909 
L 396.158697 170.862545 
L 396.169288 173.306182 
L 396.182128 175.749818 
L 396.197515 178.193455 
L 396.215717 180.637091 
L 396.236972 183.080727 
L 396.261493 185.524364 
L 396.289462 187.968 
L 396.321036 190.411636 
L 396.35634 192.855273 
L 396.395475 195.298909 
L 396.438509 197.742545 
L 396.485482 200.186182 
L 396.536403 202.629818 
L 396.591251 205.073455 
L 396.649973 207.517091 
L 396.712485 209.960727 
L 396.778671 212.404364 
L 396.848384 214.848 
L 396.921446 217.291636 
L 396.997648 219.735273 
L 397.076745 222.178909 
L 397.158461 224.622545 
L 397.242483 227.066182 
L 397.328461 229.509818 
L 397.416003 231.953455 
L 397.504672 234.397091 
L 397.593981 236.840727 
L 397.683389 239.284364 
L 397.772296 241.728 
L 397.860038 244.171636 
L 397.945881 246.615273 
L 398.029019 249.058909 
L 398.108573 251.502545 
L 398.183587 253.946182 
L 398.253032 256.389818 
L 398.315807 258.833455 
L 398.370749 261.277091 
L 398.416639 263.720727 
L 398.452217 266.164364 
L 398.476194 268.608 
L 398.487273 271.051636 
L 398.484167 273.495273 
L 398.465625 275.938909 
L 398.430452 278.382545 
L 398.377538 280.826182 
L 398.305883 283.269818 
L 398.21462 285.713455 
L 398.103042 288.157091 
L 397.970623 290.600727 
L 397.817038 293.044364 
L 397.642177 295.488 
z
" clip-path="url(#pac428754ae)" style="fill: #1f77b4; fill-opacity: 0.3"/>
   </g>
   <g id="matplotlib.axis_1">
    <g id="xtick_1">
     <g id="line2d_1">
      <defs>
       <path id="m31a6356e84" d="M 0 0 
L 0 3.5 
" style="stroke: #000000; stroke-width: 0.8"/>
      </defs>
      <g>
       <use xlink:href="#m31a6356e84" x="85.157886" y="307.584" style="stroke: #000000; stroke-width: 0.8"/>
      </g>
     </g>
     <g id="text_1">
      <!-- Var. Values -->
      <g transform="translate(57.94773 322.182437)scale(0.1 -0.1)">
       <defs>
        <path id="DejaVuSans-56" d="M 1831 0 
L 50 4666 
L 709 4666 
L 2188 738 
L 3669 4666 
L 4325 4666 
L 2547 0 
L 1831 0 
z
" transform="scale(0.015625)"/>
        <path id="DejaVuSans-61" d="M 2194 1759 
Q 1497 1759 1228 1600 
Q 959 1441 959 1056 
Q 959 750 1161 570 
Q 1363 391 1709 391 
Q 2188 391 2477 730 
Q 2766 1069 2766 1631 
L 2766 1759 
L 2194 1759 
z
M 3341 1997 
L 3341 0 
L 2766 0 
L 2766 531 
Q 2569 213 2275 61 
Q 1981 -91 1556 -91 
Q 1019 -91 701 211 
Q 384 513 384 1019 
Q 384 1609 779 1909 
Q 1175 2209 1959 2209 
L 2766 2209 
L 2766 2266 
Q 2766 2663 2505 2880 
Q 2244 3097 1772 3097 
Q 1472 3097 1187 3025 
Q 903 2953 641 2809 
L 641 3341 
Q 956 3463 1253 3523 
Q 1550 3584 1831 3584 
Q 2591 3584 2966 3190 
Q 3341 2797 3341 1997 
z
" transform="scale(0.015625)"/>
        <path id="DejaVuSans-72" d="M 2631 2963 
Q 2534 3019 2420 3045 
Q 2306 3072 2169 3072 
Q 1681 3072 1420 2755 
Q 1159 2438 1159 1844 
L 1159 0 
L 581 0 
L 581 3500 
L 1159 3500 
L 1159 2956 
Q 1341 3275 1631 3429 
Q 1922 3584 2338 3584 
Q 2397 3584 2469 3576 
Q 2541 3569 2628 3553 
L 2631 2963 
z
" transform="scale(0.015625)"/>
        <path id="DejaVuSans-2e" d="M 684 794 
L 1344 794 
L 1344 0 
L 684 0 
L 684 794 
z
" transform="scale(0.015625)"/>
        <path id="DejaVuSans-20" transform="scale(0.015625)"/>
        <path id="DejaVuSans-6c" d="M 603 4863 
L 1178 4863 
L 1178 0 
L 603 0 
L 603 4863 
z
" transform="scale(0.015625)"/>
        <path id="DejaVuSans-75" d="M 544 1381 
L 544 3500 
L 1119 3500 
L 1119 1403 
Q 1119 906 1312 657 
Q 1506 409 1894 409 
Q 2359 409 2629 706 
Q 2900 1003 2900 1516 
L 2900 3500 
L 3475 3500 
L 3475 0 
L 2900 0 
L 2900 538 
Q 2691 219 2414 64 
Q 2138 -91 1772 -91 
Q 1169 -91 856 284 
Q 544 659 544 1381 
z
M 1991 3584 
L 1991 3584 
z
" transform="scale(0.015625)"/>
        <path id="DejaVuSans-65" d="M 3597 1894 
L 3597 1613 
L 953 1613 
Q 991 1019 1311 708 
Q 1631 397 2203 397 
Q 2534 397 2845 478 
Q 3156 559 3463 722 
L 3463 178 
Q 3153 47 2828 -22 
Q 2503 -91 2169 -91 
Q 1331 -91 842 396 
Q 353 884 353 1716 
Q 353 2575 817 3079 
Q 1281 3584 2069 3584 
Q 2775 3584 3186 3129 
Q 3597 2675 3597 1894 
z
M 3022 2063 
Q 3016 2534 2758 2815 
Q 2500 3097 2075 3097 
Q 1594 3097 1305 2825 
Q 1016 2553 972 2059 
L 3022 2063 
z
" transform="scale(0.015625)"/>
        <path id="DejaVuSans-73" d="M 2834 3397 
L 2834 2853 
Q 2591 2978 2328 3040 
Q 2066 3103 1784 3103 
Q 1356 3103 1142 2972 
Q 928 2841 928 2578 
Q 928 2378 1081 2264 
Q 1234 2150 1697 2047 
L 1894 2003 
Q 2506 1872 2764 1633 
Q 3022 1394 3022 966 
Q 3022 478 2636 193 
Q 2250 -91 1575 -91 
Q 1294 -91 989 -36 
Q 684 19 347 128 
L 347 722 
Q 666 556 975 473 
Q 1284 391 1588 391 
Q 1994 391 2212 530 
Q 2431 669 2431 922 
Q 2431 1156 2273 1281 
Q 2116 1406 1581 1522 
L 1381 1569 
Q 847 1681 609 1914 
Q 372 2147 372 2553 
Q 372 3047 722 3315 
Q 1072 3584 1716 3584 
Q 2034 3584 2315 3537 
Q 2597 3491 2834 3397 
z
" transform="scale(0.015625)"/>
       </defs>
       <use xlink:href="#DejaVuSans-56"/>
       <use xlink:href="#DejaVuSans-61" x="60.658203"/>
       <use xlink:href="#DejaVuSans-72" x="121.9375"/>
       <use xlink:href="#DejaVuSans-2e" x="153.925781"/>
       <use xlink:href="#DejaVuSans-20" x="185.712891"/>
       <use xlink:href="#DejaVuSans-56" x="217.5"/>
       <use xlink:href="#DejaVuSans-61" x="278.158203"/>
       <use xlink:href="#DejaVuSans-6c" x="339.4375"/>
       <use xlink:href="#DejaVuSans-75" x="367.220703"/>
       <use xlink:href="#DejaVuSans-65" x="430.599609"/>
       <use xlink:href="#DejaVuSans-73" x="492.123047"/>
      </g>
     </g>
    </g>
    <g id="xtick_2">
     <g id="line2d_2">
      <g>
       <use xlink:href="#m31a6356e84" x="160.658943" y="307.584" style="stroke: #000000; stroke-width: 0.8"/>
      </g>
     </g>
     <g id="text_2">
      <!-- Arg. Methods -->
      <g transform="translate(127.560505 322.182437)scale(0.1 -0.1)">
       <defs>
        <path id="DejaVuSans-41" d="M 2188 4044 
L 1331 1722 
L 3047 1722 
L 2188 4044 
z
M 1831 4666 
L 2547 4666 
L 4325 0 
L 3669 0 
L 3244 1197 
L 1141 1197 
L 716 0 
L 50 0 
L 1831 4666 
z
" transform="scale(0.015625)"/>
        <path id="DejaVuSans-67" d="M 2906 1791 
Q 2906 2416 2648 2759 
Q 2391 3103 1925 3103 
Q 1463 3103 1205 2759 
Q 947 2416 947 1791 
Q 947 1169 1205 825 
Q 1463 481 1925 481 
Q 2391 481 2648 825 
Q 2906 1169 2906 1791 
z
M 3481 434 
Q 3481 -459 3084 -895 
Q 2688 -1331 1869 -1331 
Q 1566 -1331 1297 -1286 
Q 1028 -1241 775 -1147 
L 775 -588 
Q 1028 -725 1275 -790 
Q 1522 -856 1778 -856 
Q 2344 -856 2625 -561 
Q 2906 -266 2906 331 
L 2906 616 
Q 2728 306 2450 153 
Q 2172 0 1784 0 
Q 1141 0 747 490 
Q 353 981 353 1791 
Q 353 2603 747 3093 
Q 1141 3584 1784 3584 
Q 2172 3584 2450 3431 
Q 2728 3278 2906 2969 
L 2906 3500 
L 3481 3500 
L 3481 434 
z
" transform="scale(0.015625)"/>
        <path id="DejaVuSans-4d" d="M 628 4666 
L 1569 4666 
L 2759 1491 
L 3956 4666 
L 4897 4666 
L 4897 0 
L 4281 0 
L 4281 4097 
L 3078 897 
L 2444 897 
L 1241 4097 
L 1241 0 
L 628 0 
L 628 4666 
z
" transform="scale(0.015625)"/>
        <path id="DejaVuSans-74" d="M 1172 4494 
L 1172 3500 
L 2356 3500 
L 2356 3053 
L 1172 3053 
L 1172 1153 
Q 1172 725 1289 603 
Q 1406 481 1766 481 
L 2356 481 
L 2356 0 
L 1766 0 
Q 1100 0 847 248 
Q 594 497 594 1153 
L 594 3053 
L 172 3053 
L 172 3500 
L 594 3500 
L 594 4494 
L 1172 4494 
z
" transform="scale(0.015625)"/>
        <path id="DejaVuSans-68" d="M 3513 2113 
L 3513 0 
L 2938 0 
L 2938 2094 
Q 2938 2591 2744 2837 
Q 2550 3084 2163 3084 
Q 1697 3084 1428 2787 
Q 1159 2491 1159 1978 
L 1159 0 
L 581 0 
L 581 4863 
L 1159 4863 
L 1159 2956 
Q 1366 3272 1645 3428 
Q 1925 3584 2291 3584 
Q 2894 3584 3203 3211 
Q 3513 2838 3513 2113 
z
" transform="scale(0.015625)"/>
        <path id="DejaVuSans-6f" d="M 1959 3097 
Q 1497 3097 1228 2736 
Q 959 2375 959 1747 
Q 959 1119 1226 758 
Q 1494 397 1959 397 
Q 2419 397 2687 759 
Q 2956 1122 2956 1747 
Q 2956 2369 2687 2733 
Q 2419 3097 1959 3097 
z
M 1959 3584 
Q 2709 3584 3137 3096 
Q 3566 2609 3566 1747 
Q 3566 888 3137 398 
Q 2709 -91 1959 -91 
Q 1206 -91 779 398 
Q 353 888 353 1747 
Q 353 2609 779 3096 
Q 1206 3584 1959 3584 
z
" transform="scale(0.015625)"/>
        <path id="DejaVuSans-64" d="M 2906 2969 
L 2906 4863 
L 3481 4863 
L 3481 0 
L 2906 0 
L 2906 525 
Q 2725 213 2448 61 
Q 2172 -91 1784 -91 
Q 1150 -91 751 415 
Q 353 922 353 1747 
Q 353 2572 751 3078 
Q 1150 3584 1784 3584 
Q 2172 3584 2448 3432 
Q 2725 3281 2906 2969 
z
M 947 1747 
Q 947 1113 1208 752 
Q 1469 391 1925 391 
Q 2381 391 2643 752 
Q 2906 1113 2906 1747 
Q 2906 2381 2643 2742 
Q 2381 3103 1925 3103 
Q 1469 3103 1208 2742 
Q 947 2381 947 1747 
z
" transform="scale(0.015625)"/>
       </defs>
       <use xlink:href="#DejaVuSans-41"/>
       <use xlink:href="#DejaVuSans-72" x="68.408203"/>
       <use xlink:href="#DejaVuSans-67" x="107.771484"/>
       <use xlink:href="#DejaVuSans-2e" x="171.248047"/>
       <use xlink:href="#DejaVuSans-20" x="203.035156"/>
       <use xlink:href="#DejaVuSans-4d" x="234.822266"/>
       <use xlink:href="#DejaVuSans-65" x="321.101562"/>
       <use xlink:href="#DejaVuSans-74" x="382.625"/>
       <use xlink:href="#DejaVuSans-68" x="421.833984"/>
       <use xlink:href="#DejaVuSans-6f" x="485.212891"/>
       <use xlink:href="#DejaVuSans-64" x="546.394531"/>
       <use xlink:href="#DejaVuSans-73" x="609.871094"/>
      </g>
     </g>
    </g>
    <g id="xtick_3">
     <g id="line2d_3">
      <g>
       <use xlink:href="#m31a6356e84" x="236.16" y="307.584" style="stroke: #000000; stroke-width: 0.8"/>
      </g>
     </g>
     <g id="text_3">
      <!-- Test Length -->
      <g transform="translate(207.47875 322.182437)scale(0.1 -0.1)">
       <defs>
        <path id="DejaVuSans-54" d="M -19 4666 
L 3928 4666 
L 3928 4134 
L 2272 4134 
L 2272 0 
L 1638 0 
L 1638 4134 
L -19 4134 
L -19 4666 
z
" transform="scale(0.015625)"/>
        <path id="DejaVuSans-4c" d="M 628 4666 
L 1259 4666 
L 1259 531 
L 3531 531 
L 3531 0 
L 628 0 
L 628 4666 
z
" transform="scale(0.015625)"/>
        <path id="DejaVuSans-6e" d="M 3513 2113 
L 3513 0 
L 2938 0 
L 2938 2094 
Q 2938 2591 2744 2837 
Q 2550 3084 2163 3084 
Q 1697 3084 1428 2787 
Q 1159 2491 1159 1978 
L 1159 0 
L 581 0 
L 581 3500 
L 1159 3500 
L 1159 2956 
Q 1366 3272 1645 3428 
Q 1925 3584 2291 3584 
Q 2894 3584 3203 3211 
Q 3513 2838 3513 2113 
z
" transform="scale(0.015625)"/>
       </defs>
       <use xlink:href="#DejaVuSans-54"/>
       <use xlink:href="#DejaVuSans-65" x="44.083984"/>
       <use xlink:href="#DejaVuSans-73" x="105.607422"/>
       <use xlink:href="#DejaVuSans-74" x="157.707031"/>
       <use xlink:href="#DejaVuSans-20" x="196.916016"/>
       <use xlink:href="#DejaVuSans-4c" x="228.703125"/>
       <use xlink:href="#DejaVuSans-65" x="282.666016"/>
       <use xlink:href="#DejaVuSans-6e" x="344.189453"/>
       <use xlink:href="#DejaVuSans-67" x="407.568359"/>
       <use xlink:href="#DejaVuSans-74" x="471.044922"/>
       <use xlink:href="#DejaVuSans-68" x="510.253906"/>
      </g>
     </g>
    </g>
    <g id="xtick_4">
     <g id="line2d_4">
      <g>
       <use xlink:href="#m31a6356e84" x="311.661057" y="307.584" style="stroke: #000000; stroke-width: 0.8"/>
      </g>
     </g>
     <g id="text_4">
      <!-- Num. Class/Meth -->
      <g transform="translate(269.345432 322.182437)scale(0.1 -0.1)">
       <defs>
        <path id="DejaVuSans-4e" d="M 628 4666 
L 1478 4666 
L 3547 763 
L 3547 4666 
L 4159 4666 
L 4159 0 
L 3309 0 
L 1241 3903 
L 1241 0 
L 628 0 
L 628 4666 
z
" transform="scale(0.015625)"/>
        <path id="DejaVuSans-6d" d="M 3328 2828 
Q 3544 3216 3844 3400 
Q 4144 3584 4550 3584 
Q 5097 3584 5394 3201 
Q 5691 2819 5691 2113 
L 5691 0 
L 5113 0 
L 5113 2094 
Q 5113 2597 4934 2840 
Q 4756 3084 4391 3084 
Q 3944 3084 3684 2787 
Q 3425 2491 3425 1978 
L 3425 0 
L 2847 0 
L 2847 2094 
Q 2847 2600 2669 2842 
Q 2491 3084 2119 3084 
Q 1678 3084 1418 2786 
Q 1159 2488 1159 1978 
L 1159 0 
L 581 0 
L 581 3500 
L 1159 3500 
L 1159 2956 
Q 1356 3278 1631 3431 
Q 1906 3584 2284 3584 
Q 2666 3584 2933 3390 
Q 3200 3197 3328 2828 
z
" transform="scale(0.015625)"/>
        <path id="DejaVuSans-43" d="M 4122 4306 
L 4122 3641 
Q 3803 3938 3442 4084 
Q 3081 4231 2675 4231 
Q 1875 4231 1450 3742 
Q 1025 3253 1025 2328 
Q 1025 1406 1450 917 
Q 1875 428 2675 428 
Q 3081 428 3442 575 
Q 3803 722 4122 1019 
L 4122 359 
Q 3791 134 3420 21 
Q 3050 -91 2638 -91 
Q 1578 -91 968 557 
Q 359 1206 359 2328 
Q 359 3453 968 4101 
Q 1578 4750 2638 4750 
Q 3056 4750 3426 4639 
Q 3797 4528 4122 4306 
z
" transform="scale(0.015625)"/>
        <path id="DejaVuSans-2f" d="M 1625 4666 
L 2156 4666 
L 531 -594 
L 0 -594 
L 1625 4666 
z
" transform="scale(0.015625)"/>
       </defs>
       <use xlink:href="#DejaVuSans-4e"/>
       <use xlink:href="#DejaVuSans-75" x="74.804688"/>
       <use xlink:href="#DejaVuSans-6d" x="138.183594"/>
       <use xlink:href="#DejaVuSans-2e" x="235.595703"/>
       <use xlink:href="#DejaVuSans-20" x="267.382812"/>
       <use xlink:href="#DejaVuSans-43" x="299.169922"/>
       <use xlink:href="#DejaVuSans-6c" x="368.994141"/>
       <use xlink:href="#DejaVuSans-61" x="396.777344"/>
       <use xlink:href="#DejaVuSans-73" x="458.056641"/>
       <use xlink:href="#DejaVuSans-73" x="510.15625"/>
       <use xlink:href="#DejaVuSans-2f" x="562.255859"/>
       <use xlink:href="#DejaVuSans-4d" x="595.947266"/>
       <use xlink:href="#DejaVuSans-65" x="682.226562"/>
       <use xlink:href="#DejaVuSans-74" x="743.75"/>
       <use xlink:href="#DejaVuSans-68" x="782.958984"/>
      </g>
     </g>
    </g>
    <g id="xtick_5">
     <g id="line2d_5">
      <g>
       <use xlink:href="#m31a6356e84" x="387.162114" y="307.584" style="stroke: #000000; stroke-width: 0.8"/>
      </g>
     </g>
     <g id="text_5">
      <!-- Similarity -->
      <g transform="translate(363.52227 322.182437)scale(0.1 -0.1)">
       <defs>
        <path id="DejaVuSans-53" d="M 3425 4513 
L 3425 3897 
Q 3066 4069 2747 4153 
Q 2428 4238 2131 4238 
Q 1616 4238 1336 4038 
Q 1056 3838 1056 3469 
Q 1056 3159 1242 3001 
Q 1428 2844 1947 2747 
L 2328 2669 
Q 3034 2534 3370 2195 
Q 3706 1856 3706 1288 
Q 3706 609 3251 259 
Q 2797 -91 1919 -91 
Q 1588 -91 1214 -16 
Q 841 59 441 206 
L 441 856 
Q 825 641 1194 531 
Q 1563 422 1919 422 
Q 2459 422 2753 634 
Q 3047 847 3047 1241 
Q 3047 1584 2836 1778 
Q 2625 1972 2144 2069 
L 1759 2144 
Q 1053 2284 737 2584 
Q 422 2884 422 3419 
Q 422 4038 858 4394 
Q 1294 4750 2059 4750 
Q 2388 4750 2728 4690 
Q 3069 4631 3425 4513 
z
" transform="scale(0.015625)"/>
        <path id="DejaVuSans-69" d="M 603 3500 
L 1178 3500 
L 1178 0 
L 603 0 
L 603 3500 
z
M 603 4863 
L 1178 4863 
L 1178 4134 
L 603 4134 
L 603 4863 
z
" transform="scale(0.015625)"/>
        <path id="DejaVuSans-79" d="M 2059 -325 
Q 1816 -950 1584 -1140 
Q 1353 -1331 966 -1331 
L 506 -1331 
L 506 -850 
L 844 -850 
Q 1081 -850 1212 -737 
Q 1344 -625 1503 -206 
L 1606 56 
L 191 3500 
L 800 3500 
L 1894 763 
L 2988 3500 
L 3597 3500 
L 2059 -325 
z
" transform="scale(0.015625)"/>
       </defs>
       <use xlink:href="#DejaVuSans-53"/>
       <use xlink:href="#DejaVuSans-69" x="63.476562"/>
       <use xlink:href="#DejaVuSans-6d" x="91.259766"/>
       <use xlink:href="#DejaVuSans-69" x="188.671875"/>
       <use xlink:href="#DejaVuSans-6c" x="216.455078"/>
       <use xlink:href="#DejaVuSans-61" x="244.238281"/>
       <use xlink:href="#DejaVuSans-72" x="305.517578"/>
       <use xlink:href="#DejaVuSans-69" x="346.630859"/>
       <use xlink:href="#DejaVuSans-74" x="374.414062"/>
       <use xlink:href="#DejaVuSans-79" x="413.623047"/>
      </g>
     </g>
    </g>
    <g id="text_6">
     <!-- Readability aspect -->
     <g transform="translate(173.335312 337.38025)scale(0.12 -0.12)">
      <defs>
       <path id="DejaVuSans-Bold-52" d="M 2297 2597 
Q 2675 2597 2839 2737 
Q 3003 2878 3003 3200 
Q 3003 3519 2839 3656 
Q 2675 3794 2297 3794 
L 1791 3794 
L 1791 2597 
L 2297 2597 
z
M 1791 1766 
L 1791 0 
L 588 0 
L 588 4666 
L 2425 4666 
Q 3347 4666 3776 4356 
Q 4206 4047 4206 3378 
Q 4206 2916 3982 2619 
Q 3759 2322 3309 2181 
Q 3556 2125 3751 1926 
Q 3947 1728 4147 1325 
L 4800 0 
L 3519 0 
L 2950 1159 
Q 2778 1509 2601 1637 
Q 2425 1766 2131 1766 
L 1791 1766 
z
" transform="scale(0.015625)"/>
       <path id="DejaVuSans-Bold-65" d="M 4031 1759 
L 4031 1441 
L 1416 1441 
Q 1456 1047 1700 850 
Q 1944 653 2381 653 
Q 2734 653 3104 758 
Q 3475 863 3866 1075 
L 3866 213 
Q 3469 63 3072 -14 
Q 2675 -91 2278 -91 
Q 1328 -91 801 392 
Q 275 875 275 1747 
Q 275 2603 792 3093 
Q 1309 3584 2216 3584 
Q 3041 3584 3536 3087 
Q 4031 2591 4031 1759 
z
M 2881 2131 
Q 2881 2450 2695 2645 
Q 2509 2841 2209 2841 
Q 1884 2841 1681 2658 
Q 1478 2475 1428 2131 
L 2881 2131 
z
" transform="scale(0.015625)"/>
       <path id="DejaVuSans-Bold-61" d="M 2106 1575 
Q 1756 1575 1579 1456 
Q 1403 1338 1403 1106 
Q 1403 894 1545 773 
Q 1688 653 1941 653 
Q 2256 653 2472 879 
Q 2688 1106 2688 1447 
L 2688 1575 
L 2106 1575 
z
M 3816 1997 
L 3816 0 
L 2688 0 
L 2688 519 
Q 2463 200 2181 54 
Q 1900 -91 1497 -91 
Q 953 -91 614 226 
Q 275 544 275 1050 
Q 275 1666 698 1953 
Q 1122 2241 2028 2241 
L 2688 2241 
L 2688 2328 
Q 2688 2594 2478 2717 
Q 2269 2841 1825 2841 
Q 1466 2841 1156 2769 
Q 847 2697 581 2553 
L 581 3406 
Q 941 3494 1303 3539 
Q 1666 3584 2028 3584 
Q 2975 3584 3395 3211 
Q 3816 2838 3816 1997 
z
" transform="scale(0.015625)"/>
       <path id="DejaVuSans-Bold-64" d="M 2919 2988 
L 2919 4863 
L 4044 4863 
L 4044 0 
L 2919 0 
L 2919 506 
Q 2688 197 2409 53 
Q 2131 -91 1766 -91 
Q 1119 -91 703 423 
Q 288 938 288 1747 
Q 288 2556 703 3070 
Q 1119 3584 1766 3584 
Q 2128 3584 2408 3439 
Q 2688 3294 2919 2988 
z
M 2181 722 
Q 2541 722 2730 984 
Q 2919 1247 2919 1747 
Q 2919 2247 2730 2509 
Q 2541 2772 2181 2772 
Q 1825 2772 1636 2509 
Q 1447 2247 1447 1747 
Q 1447 1247 1636 984 
Q 1825 722 2181 722 
z
" transform="scale(0.015625)"/>
       <path id="DejaVuSans-Bold-62" d="M 2400 722 
Q 2759 722 2948 984 
Q 3138 1247 3138 1747 
Q 3138 2247 2948 2509 
Q 2759 2772 2400 2772 
Q 2041 2772 1848 2508 
Q 1656 2244 1656 1747 
Q 1656 1250 1848 986 
Q 2041 722 2400 722 
z
M 1656 2988 
Q 1888 3294 2169 3439 
Q 2450 3584 2816 3584 
Q 3463 3584 3878 3070 
Q 4294 2556 4294 1747 
Q 4294 938 3878 423 
Q 3463 -91 2816 -91 
Q 2450 -91 2169 54 
Q 1888 200 1656 506 
L 1656 0 
L 538 0 
L 538 4863 
L 1656 4863 
L 1656 2988 
z
" transform="scale(0.015625)"/>
       <path id="DejaVuSans-Bold-69" d="M 538 3500 
L 1656 3500 
L 1656 0 
L 538 0 
L 538 3500 
z
M 538 4863 
L 1656 4863 
L 1656 3950 
L 538 3950 
L 538 4863 
z
" transform="scale(0.015625)"/>
       <path id="DejaVuSans-Bold-6c" d="M 538 4863 
L 1656 4863 
L 1656 0 
L 538 0 
L 538 4863 
z
" transform="scale(0.015625)"/>
       <path id="DejaVuSans-Bold-74" d="M 1759 4494 
L 1759 3500 
L 2913 3500 
L 2913 2700 
L 1759 2700 
L 1759 1216 
Q 1759 972 1856 886 
Q 1953 800 2241 800 
L 2816 800 
L 2816 0 
L 1856 0 
Q 1194 0 917 276 
Q 641 553 641 1216 
L 641 2700 
L 84 2700 
L 84 3500 
L 641 3500 
L 641 4494 
L 1759 4494 
z
" transform="scale(0.015625)"/>
       <path id="DejaVuSans-Bold-79" d="M 78 3500 
L 1197 3500 
L 2138 1125 
L 2938 3500 
L 4056 3500 
L 2584 -331 
Q 2363 -916 2067 -1148 
Q 1772 -1381 1288 -1381 
L 641 -1381 
L 641 -647 
L 991 -647 
Q 1275 -647 1404 -556 
Q 1534 -466 1606 -231 
L 1638 -134 
L 78 3500 
z
" transform="scale(0.015625)"/>
       <path id="DejaVuSans-Bold-20" transform="scale(0.015625)"/>
       <path id="DejaVuSans-Bold-73" d="M 3272 3391 
L 3272 2541 
Q 2913 2691 2578 2766 
Q 2244 2841 1947 2841 
Q 1628 2841 1473 2761 
Q 1319 2681 1319 2516 
Q 1319 2381 1436 2309 
Q 1553 2238 1856 2203 
L 2053 2175 
Q 2913 2066 3209 1816 
Q 3506 1566 3506 1031 
Q 3506 472 3093 190 
Q 2681 -91 1863 -91 
Q 1516 -91 1145 -36 
Q 775 19 384 128 
L 384 978 
Q 719 816 1070 734 
Q 1422 653 1784 653 
Q 2113 653 2278 743 
Q 2444 834 2444 1013 
Q 2444 1163 2330 1236 
Q 2216 1309 1875 1350 
L 1678 1375 
Q 931 1469 631 1722 
Q 331 1975 331 2491 
Q 331 3047 712 3315 
Q 1094 3584 1881 3584 
Q 2191 3584 2531 3537 
Q 2872 3491 3272 3391 
z
" transform="scale(0.015625)"/>
       <path id="DejaVuSans-Bold-70" d="M 1656 506 
L 1656 -1331 
L 538 -1331 
L 538 3500 
L 1656 3500 
L 1656 2988 
Q 1888 3294 2169 3439 
Q 2450 3584 2816 3584 
Q 3463 3584 3878 3070 
Q 4294 2556 4294 1747 
Q 4294 938 3878 423 
Q 3463 -91 2816 -91 
Q 2450 -91 2169 54 
Q 1888 200 1656 506 
z
M 2400 2772 
Q 2041 2772 1848 2508 
Q 1656 2244 1656 1747 
Q 1656 1250 1848 986 
Q 2041 722 2400 722 
Q 2759 722 2948 984 
Q 3138 1247 3138 1747 
Q 3138 2247 2948 2509 
Q 2759 2772 2400 2772 
z
" transform="scale(0.015625)"/>
       <path id="DejaVuSans-Bold-63" d="M 3366 3391 
L 3366 2478 
Q 3138 2634 2908 2709 
Q 2678 2784 2431 2784 
Q 1963 2784 1702 2511 
Q 1441 2238 1441 1747 
Q 1441 1256 1702 982 
Q 1963 709 2431 709 
Q 2694 709 2930 787 
Q 3166 866 3366 1019 
L 3366 103 
Q 3103 6 2833 -42 
Q 2563 -91 2291 -91 
Q 1344 -91 809 395 
Q 275 881 275 1747 
Q 275 2613 809 3098 
Q 1344 3584 2291 3584 
Q 2566 3584 2833 3536 
Q 3100 3488 3366 3391 
z
" transform="scale(0.015625)"/>
      </defs>
      <use xlink:href="#DejaVuSans-Bold-52"/>
      <use xlink:href="#DejaVuSans-Bold-65" x="77.001953"/>
      <use xlink:href="#DejaVuSans-Bold-61" x="144.824219"/>
      <use xlink:href="#DejaVuSans-Bold-64" x="212.304688"/>
      <use xlink:href="#DejaVuSans-Bold-61" x="283.886719"/>
      <use xlink:href="#DejaVuSans-Bold-62" x="351.367188"/>
      <use xlink:href="#DejaVuSans-Bold-69" x="422.949219"/>
      <use xlink:href="#DejaVuSans-Bold-6c" x="457.226562"/>
      <use xlink:href="#DejaVuSans-Bold-69" x="491.503906"/>
      <use xlink:href="#DejaVuSans-Bold-74" x="525.78125"/>
      <use xlink:href="#DejaVuSans-Bold-79" x="573.583984"/>
      <use xlink:href="#DejaVuSans-Bold-20" x="638.769531"/>
      <use xlink:href="#DejaVuSans-Bold-61" x="673.583984"/>
      <use xlink:href="#DejaVuSans-Bold-73" x="741.064453"/>
      <use xlink:href="#DejaVuSans-Bold-70" x="800.585938"/>
      <use xlink:href="#DejaVuSans-Bold-65" x="872.167969"/>
      <use xlink:href="#DejaVuSans-Bold-63" x="939.990234"/>
      <use xlink:href="#DejaVuSans-Bold-74" x="999.267578"/>
     </g>
    </g>
   </g>
   <g id="matplotlib.axis_2">
    <g id="ytick_1">
     <g id="line2d_6">
      <defs>
       <path id="m6965e4e483" d="M 0 0 
L -3.5 0 
" style="stroke: #000000; stroke-width: 0.8"/>
      </defs>
      <g>
       <use xlink:href="#m6965e4e483" x="57.6" y="295.488" style="stroke: #000000; stroke-width: 0.8"/>
      </g>
     </g>
     <g id="text_7">
      <!-- 1 -->
      <g transform="translate(44.2375 299.287219)scale(0.1 -0.1)">
       <defs>
        <path id="DejaVuSans-31" d="M 794 531 
L 1825 531 
L 1825 4091 
L 703 3866 
L 703 4441 
L 1819 4666 
L 2450 4666 
L 2450 531 
L 3481 531 
L 3481 0 
L 794 0 
L 794 531 
z
" transform="scale(0.015625)"/>
       </defs>
       <use xlink:href="#DejaVuSans-31"/>
      </g>
     </g>
    </g>
    <g id="ytick_2">
     <g id="line2d_7">
      <g>
       <use xlink:href="#m6965e4e483" x="57.6" y="235.008" style="stroke: #000000; stroke-width: 0.8"/>
      </g>
     </g>
     <g id="text_8">
      <!-- 2 -->
      <g transform="translate(44.2375 238.807219)scale(0.1 -0.1)">
       <defs>
        <path id="DejaVuSans-32" d="M 1228 531 
L 3431 531 
L 3431 0 
L 469 0 
L 469 531 
Q 828 903 1448 1529 
Q 2069 2156 2228 2338 
Q 2531 2678 2651 2914 
Q 2772 3150 2772 3378 
Q 2772 3750 2511 3984 
Q 2250 4219 1831 4219 
Q 1534 4219 1204 4116 
Q 875 4013 500 3803 
L 500 4441 
Q 881 4594 1212 4672 
Q 1544 4750 1819 4750 
Q 2544 4750 2975 4387 
Q 3406 4025 3406 3419 
Q 3406 3131 3298 2873 
Q 3191 2616 2906 2266 
Q 2828 2175 2409 1742 
Q 1991 1309 1228 531 
z
" transform="scale(0.015625)"/>
       </defs>
       <use xlink:href="#DejaVuSans-32"/>
      </g>
     </g>
    </g>
    <g id="ytick_3">
     <g id="line2d_8">
      <g>
       <use xlink:href="#m6965e4e483" x="57.6" y="174.528" style="stroke: #000000; stroke-width: 0.8"/>
      </g>
     </g>
     <g id="text_9">
      <!-- 3 -->
      <g transform="translate(44.2375 178.327219)scale(0.1 -0.1)">
       <defs>
        <path id="DejaVuSans-33" d="M 2597 2516 
Q 3050 2419 3304 2112 
Q 3559 1806 3559 1356 
Q 3559 666 3084 287 
Q 2609 -91 1734 -91 
Q 1441 -91 1130 -33 
Q 819 25 488 141 
L 488 750 
Q 750 597 1062 519 
Q 1375 441 1716 441 
Q 2309 441 2620 675 
Q 2931 909 2931 1356 
Q 2931 1769 2642 2001 
Q 2353 2234 1838 2234 
L 1294 2234 
L 1294 2753 
L 1863 2753 
Q 2328 2753 2575 2939 
Q 2822 3125 2822 3475 
Q 2822 3834 2567 4026 
Q 2313 4219 1838 4219 
Q 1578 4219 1281 4162 
Q 984 4106 628 3988 
L 628 4550 
Q 988 4650 1302 4700 
Q 1616 4750 1894 4750 
Q 2613 4750 3031 4423 
Q 3450 4097 3450 3541 
Q 3450 3153 3228 2886 
Q 3006 2619 2597 2516 
z
" transform="scale(0.015625)"/>
       </defs>
       <use xlink:href="#DejaVuSans-33"/>
      </g>
     </g>
    </g>
    <g id="ytick_4">
     <g id="line2d_9">
      <g>
       <use xlink:href="#m6965e4e483" x="57.6" y="114.048" style="stroke: #000000; stroke-width: 0.8"/>
      </g>
     </g>
     <g id="text_10">
      <!-- 4 -->
      <g transform="translate(44.2375 117.847219)scale(0.1 -0.1)">
       <defs>
        <path id="DejaVuSans-34" d="M 2419 4116 
L 825 1625 
L 2419 1625 
L 2419 4116 
z
M 2253 4666 
L 3047 4666 
L 3047 1625 
L 3713 1625 
L 3713 1100 
L 3047 1100 
L 3047 0 
L 2419 0 
L 2419 1100 
L 313 1100 
L 313 1709 
L 2253 4666 
z
" transform="scale(0.015625)"/>
       </defs>
       <use xlink:href="#DejaVuSans-34"/>
      </g>
     </g>
    </g>
    <g id="ytick_5">
     <g id="line2d_10">
      <g>
       <use xlink:href="#m6965e4e483" x="57.6" y="53.568" style="stroke: #000000; stroke-width: 0.8"/>
      </g>
     </g>
     <g id="text_11">
      <!-- 5 -->
      <g transform="translate(44.2375 57.367219)scale(0.1 -0.1)">
       <defs>
        <path id="DejaVuSans-35" d="M 691 4666 
L 3169 4666 
L 3169 4134 
L 1269 4134 
L 1269 2991 
Q 1406 3038 1543 3061 
Q 1681 3084 1819 3084 
Q 2600 3084 3056 2656 
Q 3513 2228 3513 1497 
Q 3513 744 3044 326 
Q 2575 -91 1722 -91 
Q 1428 -91 1123 -41 
Q 819 9 494 109 
L 494 744 
Q 775 591 1075 516 
Q 1375 441 1709 441 
Q 2250 441 2565 725 
Q 2881 1009 2881 1497 
Q 2881 1984 2565 2268 
Q 2250 2553 1709 2553 
Q 1456 2553 1204 2497 
Q 953 2441 691 2322 
L 691 4666 
z
" transform="scale(0.015625)"/>
       </defs>
       <use xlink:href="#DejaVuSans-35"/>
      </g>
     </g>
    </g>
    <g id="text_12">
     <!-- Rating -->
     <g transform="translate(37.648125 196.687687)rotate(-90)scale(0.12 -0.12)">
      <defs>
       <path id="DejaVuSans-Bold-6e" d="M 4056 2131 
L 4056 0 
L 2931 0 
L 2931 347 
L 2931 1631 
Q 2931 2084 2911 2256 
Q 2891 2428 2841 2509 
Q 2775 2619 2662 2680 
Q 2550 2741 2406 2741 
Q 2056 2741 1856 2470 
Q 1656 2200 1656 1722 
L 1656 0 
L 538 0 
L 538 3500 
L 1656 3500 
L 1656 2988 
Q 1909 3294 2193 3439 
Q 2478 3584 2822 3584 
Q 3428 3584 3742 3212 
Q 4056 2841 4056 2131 
z
" transform="scale(0.015625)"/>
       <path id="DejaVuSans-Bold-67" d="M 2919 594 
Q 2688 288 2409 144 
Q 2131 0 1766 0 
Q 1125 0 706 504 
Q 288 1009 288 1791 
Q 288 2575 706 3076 
Q 1125 3578 1766 3578 
Q 2131 3578 2409 3434 
Q 2688 3291 2919 2981 
L 2919 3500 
L 4044 3500 
L 4044 353 
Q 4044 -491 3511 -936 
Q 2978 -1381 1966 -1381 
Q 1638 -1381 1331 -1331 
Q 1025 -1281 716 -1178 
L 716 -306 
Q 1009 -475 1290 -558 
Q 1572 -641 1856 -641 
Q 2406 -641 2662 -400 
Q 2919 -159 2919 353 
L 2919 594 
z
M 2181 2772 
Q 1834 2772 1640 2515 
Q 1447 2259 1447 1791 
Q 1447 1309 1634 1061 
Q 1822 813 2181 813 
Q 2531 813 2725 1069 
Q 2919 1325 2919 1791 
Q 2919 2259 2725 2515 
Q 2531 2772 2181 2772 
z
" transform="scale(0.015625)"/>
      </defs>
      <use xlink:href="#DejaVuSans-Bold-52"/>
      <use xlink:href="#DejaVuSans-Bold-61" x="77.001953"/>
      <use xlink:href="#DejaVuSans-Bold-74" x="144.482422"/>
      <use xlink:href="#DejaVuSans-Bold-69" x="192.285156"/>
      <use xlink:href="#DejaVuSans-Bold-6e" x="226.5625"/>
      <use xlink:href="#DejaVuSans-Bold-67" x="297.753906"/>
     </g>
    </g>
   </g>
   <g id="LineCollection_1">
    <path d="M 79.495307 172.638 
L 90.820465 172.638 
" clip-path="url(#pac428754ae)" style="fill: none; stroke: #1f77b4; stroke-width: 1.5"/>
    <path d="M 154.996364 210.438 
L 166.321522 210.438 
" clip-path="url(#pac428754ae)" style="fill: none; stroke: #1f77b4; stroke-width: 1.5"/>
    <path d="M 230.497421 178.429932 
L 241.822579 178.429932 
" clip-path="url(#pac428754ae)" style="fill: none; stroke: #1f77b4; stroke-width: 1.5"/>
    <path d="M 305.998478 206.783998 
L 317.323636 206.783998 
" clip-path="url(#pac428754ae)" style="fill: none; stroke: #1f77b4; stroke-width: 1.5"/>
    <path d="M 381.499535 204.768 
L 392.824693 204.768 
" clip-path="url(#pac428754ae)" style="fill: none; stroke: #1f77b4; stroke-width: 1.5"/>
   </g>
   <g id="LineCollection_2">
    <path d="M 79.495307 53.568 
L 90.820465 53.568 
" clip-path="url(#pac428754ae)" style="fill: none; stroke: #1f77b4; stroke-width: 1.5"/>
    <path d="M 154.996364 53.568 
L 166.321522 53.568 
" clip-path="url(#pac428754ae)" style="fill: none; stroke: #1f77b4; stroke-width: 1.5"/>
    <path d="M 230.497421 53.568 
L 241.822579 53.568 
" clip-path="url(#pac428754ae)" style="fill: none; stroke: #1f77b4; stroke-width: 1.5"/>
    <path d="M 305.998478 53.568 
L 317.323636 53.568 
" clip-path="url(#pac428754ae)" style="fill: none; stroke: #1f77b4; stroke-width: 1.5"/>
    <path d="M 381.499535 53.568 
L 392.824693 53.568 
" clip-path="url(#pac428754ae)" style="fill: none; stroke: #1f77b4; stroke-width: 1.5"/>
   </g>
   <g id="LineCollection_3">
    <path d="M 79.495307 295.488 
L 90.820465 295.488 
" clip-path="url(#pac428754ae)" style="fill: none; stroke: #1f77b4; stroke-width: 1.5"/>
    <path d="M 154.996364 295.488 
L 166.321522 295.488 
" clip-path="url(#pac428754ae)" style="fill: none; stroke: #1f77b4; stroke-width: 1.5"/>
    <path d="M 230.497421 295.488 
L 241.822579 295.488 
" clip-path="url(#pac428754ae)" style="fill: none; stroke: #1f77b4; stroke-width: 1.5"/>
    <path d="M 305.998478 295.488 
L 317.323636 295.488 
" clip-path="url(#pac428754ae)" style="fill: none; stroke: #1f77b4; stroke-width: 1.5"/>
    <path d="M 381.499535 295.488 
L 392.824693 295.488 
" clip-path="url(#pac428754ae)" style="fill: none; stroke: #1f77b4; stroke-width: 1.5"/>
   </g>
   <g id="LineCollection_4">
    <path d="M 85.157886 295.488 
L 85.157886 53.568 
" clip-path="url(#pac428754ae)" style="fill: none; stroke: #1f77b4; stroke-width: 1.5"/>
    <path d="M 160.658943 295.488 
L 160.658943 53.568 
" clip-path="url(#pac428754ae)" style="fill: none; stroke: #1f77b4; stroke-width: 1.5"/>
    <path d="M 236.16 295.488 
L 236.16 53.568 
" clip-path="url(#pac428754ae)" style="fill: none; stroke: #1f77b4; stroke-width: 1.5"/>
    <path d="M 311.661057 295.488 
L 311.661057 53.568 
" clip-path="url(#pac428754ae)" style="fill: none; stroke: #1f77b4; stroke-width: 1.5"/>
    <path d="M 387.162114 295.488 
L 387.162114 53.568 
" clip-path="url(#pac428754ae)" style="fill: none; stroke: #1f77b4; stroke-width: 1.5"/>
   </g>
   <g id="LineCollection_5">
    <path d="M 79.495307 174.528 
L 90.820465 174.528 
" clip-path="url(#pac428754ae)" style="fill: none; stroke: #1f77b4; stroke-width: 1.5"/>
    <path d="M 154.996364 235.008 
L 166.321522 235.008 
" clip-path="url(#pac428754ae)" style="fill: none; stroke: #1f77b4; stroke-width: 1.5"/>
    <path d="M 230.497421 174.528 
L 241.822579 174.528 
" clip-path="url(#pac428754ae)" style="fill: none; stroke: #1f77b4; stroke-width: 1.5"/>
    <path d="M 305.998478 204.768 
L 317.323636 204.768 
" clip-path="url(#pac428754ae)" style="fill: none; stroke: #1f77b4; stroke-width: 1.5"/>
    <path d="M 381.499535 235.008 
L 392.824693 235.008 
" clip-path="url(#pac428754ae)" style="fill: none; stroke: #1f77b4; stroke-width: 1.5"/>
   </g>
   <g id="patch_3">
    <path d="M 57.6 307.584 
L 57.6 41.472 
" style="fill: none; stroke: #000000; stroke-width: 0.8; stroke-linejoin: miter; stroke-linecap: square"/>
   </g>
   <g id="patch_4">
    <path d="M 414.72 307.584 
L 414.72 41.472 
" style="fill: none; stroke: #000000; stroke-width: 0.8; stroke-linejoin: miter; stroke-linecap: square"/>
   </g>
   <g id="patch_5">
    <path d="M 57.6 307.584 
L 414.72 307.584 
" style="fill: none; stroke: #000000; stroke-width: 0.8; stroke-linejoin: miter; stroke-linecap: square"/>
   </g>
   <g id="patch_6">
    <path d="M 57.6 41.472 
L 414.72 41.472 
" style="fill: none; stroke: #000000; stroke-width: 0.8; stroke-linejoin: miter; stroke-linecap: square"/>
   </g>
  </g>
 </g>
 <defs>
  <clipPath id="pac428754ae">
   <rect x="57.6" y="41.472" width="357.12" height="266.112"/>
  </clipPath>
 </defs>
</svg>
